Russolo-72ptExtraBold.ufo
<glyph name="numbersign" format="2">
  <advance width="1389"/>
  <unicode hex="0023"/>
  <note>
numbersign
</note>
  <outline>
    <contour>
      <point x="716" y="-1" type="line"/>
      <point x="905" y="-1" type="line"/>
      <point x="1230" y="1445" type="line"/>
      <point x="1041" y="1445" type="line"/>
    </contour>
    <contour>
      <point x="69" y="470" type="line"/>
      <point x="1255" y="470" type="line"/>
      <point x="1255" y="500" type="line"/>
      <point x="69" y="500" type="line"/>
    </contour>
    <contour>
      <point x="162" y="-1" type="line"/>
      <point x="351" y="-1" type="line"/>
      <point x="677" y="1445" type="line"/>
      <point x="488" y="1445" type="line"/>
    </contour>
    <contour>
      <point x="132" y="960" type="line"/>
      <point x="1319" y="960" type="line"/>
      <point x="1319" y="990" type="line"/>
      <point x="132" y="990" type="line"/>
    </contour>
  </outline>
</glyph>
<glyph name="ampersand" format="2">
  <advance width="1436"/>
  <unicode hex="0026"/>
  <note>
ampersand
</note>
  <outline>
    <contour>
      <point x="652" y="-35" type="curve" smooth="yes"/>
      <point x="759" y="-35"/>
      <point x="872" y="-16"/>
      <point x="937" y="15" type="curve"/>
      <point x="879" y="78" type="line"/>
      <point x="852" y="33"/>
      <point x="714" y="-4"/>
      <point x="646" y="-4" type="curve" smooth="yes"/>
      <point x="505" y="-4"/>
      <point x="405" y="210"/>
      <point x="405" y="394" type="curve" smooth="yes"/>
      <point x="405" y="621"/>
      <point x="536" y="766"/>
      <point x="662" y="766" type="curve"/>
      <point x="666" y="796" type="line"/>
      <point x="581" y="796"/>
      <point x="483" y="947"/>
      <point x="483" y="1100" type="curve" smooth="yes"/>
      <point x="483" y="1279"/>
      <point x="543" y="1449"/>
      <point x="722" y="1449" type="curve" smooth="yes"/>
      <point x="929" y="1449" type="line"/>
      <point x="929" y="1475" type="line"/>
      <point x="718" y="1475" type="line" smooth="yes"/>
      <point x="373" y="1475"/>
      <point x="205" y="1360"/>
      <point x="205" y="1100" type="curve" smooth="yes"/>
      <point x="205" y="952"/>
      <point x="259" y="837"/>
      <point x="378" y="788" type="curve"/>
      <point x="211" y="735"/>
      <point x="107" y="570"/>
      <point x="107" y="388" type="curve" smooth="yes"/>
      <point x="107" y="119"/>
      <point x="336" y="-35"/>
    </contour>
    <contour>
      <point x="1086" y="-33" type="curve" smooth="yes"/>
      <point x="1202" y="-33"/>
      <point x="1344" y="5"/>
      <point x="1365" y="24" type="curve"/>
      <point x="1365" y="66" type="line"/>
      <point x="1314" y="36"/>
      <point x="1197" y="11"/>
      <point x="1151" y="11" type="curve" smooth="yes"/>
      <point x="1023" y="11"/>
      <point x="1101" y="208"/>
      <point x="1101" y="726" type="curve" smooth="yes"/>
      <point x="1101" y="766" type="line"/>
      <point x="1291" y="766" type="line"/>
      <point x="1291" y="796" type="line"/>
      <point x="1101" y="796" type="line"/>
      <point x="1101" y="1123" type="line"/>
      <point x="1041" y="1123" type="line"/>
      <point x="1041" y="834"/>
      <point x="849" y="796"/>
      <point x="677" y="796" type="curve" smooth="yes"/>
      <point x="666" y="796" type="line"/>
      <point x="662" y="766" type="line"/>
      <point x="819" y="766" type="line"/>
      <point x="819" y="372" type="line" smooth="yes"/>
      <point x="819" y="117"/>
      <point x="869" y="-33"/>
    </contour>
  </outline>
</glyph>
<glyph name="comma" format="2">
  <advance width="533"/>
  <unicode hex="002C"/>
  <note>
comma
</note>
  <outline>
    <contour>
      <point x="134" y="-228" type="curve"/>
      <point x="281" y="-228" type="line"/>
      <point x="331" y="-96"/>
      <point x="401" y="63"/>
      <point x="423" y="151" type="curve"/>
      <point x="212" y="151" type="line"/>
      <point x="171" y="52"/>
      <point x="139" y="-137"/>
    </contour>
  </outline>
</glyph>
<glyph name="period" format="2">
  <advance width="480"/>
  <unicode hex="002E"/>
  <note>
period
</note>
  <outline>
    <contour>
      <point x="240" y="-27" type="curve" smooth="yes"/>
      <point x="311" y="-27"/>
      <point x="369" y="30"/>
      <point x="369" y="102" type="curve" smooth="yes"/>
      <point x="369" y="173"/>
      <point x="311" y="230"/>
      <point x="240" y="230" type="curve" smooth="yes"/>
      <point x="169" y="230"/>
      <point x="111" y="173"/>
      <point x="111" y="102" type="curve" smooth="yes"/>
      <point x="111" y="30"/>
      <point x="169" y="-27"/>
    </contour>
  </outline>
</glyph>
<glyph name="two" format="2">
  <advance width="1170"/>
  <unicode hex="0032"/>
  <note>
two
</note>
  <outline>
    <contour>
      <point x="46" y="0" type="line"/>
      <point x="1074" y="0" type="line"/>
      <point x="1074" y="157" type="line"/>
      <point x="234" y="157" type="line"/>
      <point x="193" y="119" type="line"/>
      <point x="513" y="365"/>
      <point x="762" y="547"/>
      <point x="916" y="713" type="curve" smooth="yes"/>
      <point x="1022" y="828"/>
      <point x="1088" y="946"/>
      <point x="1088" y="1072" type="curve" smooth="yes"/>
      <point x="1088" y="1339"/>
      <point x="900" y="1475"/>
      <point x="583" y="1475" type="curve" smooth="yes"/>
      <point x="286" y="1475"/>
      <point x="96" y="1299"/>
      <point x="96" y="1032" type="curve" smooth="yes"/>
      <point x="96" y="1027"/>
      <point x="96" y="1005"/>
      <point x="100" y="979" type="curve"/>
      <point x="358" y="999" type="line"/>
      <point x="358" y="1030" type="line" smooth="yes"/>
      <point x="358" y="1214"/>
      <point x="432" y="1445"/>
      <point x="585" y="1445" type="curve" smooth="yes"/>
      <point x="743" y="1445"/>
      <point x="825" y="1306"/>
      <point x="825" y="1144" type="curve" smooth="yes"/>
      <point x="825" y="903"/>
      <point x="671" y="602"/>
      <point x="486" y="424" type="curve" smooth="yes"/>
    </contour>
  </outline>
</glyph>
<glyph name="three" format="2">
  <advance width="1185"/>
  <unicode hex="0033"/>
  <note>
three
</note>
  <outline>
    <contour>
      <point x="562" y="-26" type="curve" smooth="yes"/>
      <point x="882" y="-26"/>
      <point x="1107" y="134"/>
      <point x="1107" y="380" type="curve" smooth="yes"/>
      <point x="1107" y="599"/>
      <point x="930" y="706"/>
      <point x="717" y="754" type="curve"/>
      <point x="716" y="735" type="line"/>
      <point x="921" y="781"/>
      <point x="1069" y="928"/>
      <point x="1069" y="1114" type="curve" smooth="yes"/>
      <point x="1069" y="1321"/>
      <point x="889" y="1475"/>
      <point x="596" y="1475" type="curve" smooth="yes"/>
      <point x="299" y="1475"/>
      <point x="92" y="1317"/>
      <point x="89" y="1067" type="curve"/>
      <point x="316" y="1087" type="line"/>
      <point x="320" y="1238"/>
      <point x="388" y="1445"/>
      <point x="592" y="1445" type="curve" smooth="yes"/>
      <point x="777" y="1445"/>
      <point x="831" y="1273"/>
      <point x="831" y="1126" type="curve" smooth="yes"/>
      <point x="831" y="884"/>
      <point x="687" y="763"/>
      <point x="548" y="763" type="curve" smooth="yes"/>
      <point x="317" y="763" type="line"/>
      <point x="317" y="733" type="line"/>
      <point x="552" y="733" type="line" smooth="yes"/>
      <point x="678" y="733"/>
      <point x="819" y="661"/>
      <point x="819" y="386" type="curve" smooth="yes"/>
      <point x="819" y="252"/>
      <point x="787" y="2"/>
      <point x="568" y="2" type="curve" smooth="yes"/>
      <point x="381" y="2"/>
      <point x="307" y="186"/>
      <point x="307" y="339" type="curve" smooth="yes"/>
      <point x="307" y="369" type="line"/>
      <point x="63" y="389" type="line"/>
      <point x="63" y="348" type="line" smooth="yes"/>
      <point x="63" y="116"/>
      <point x="260" y="-26"/>
    </contour>
  </outline>
</glyph>
<glyph name="eight" format="2">
  <advance width="1136"/>
  <unicode hex="0038"/>
  <note>
eight
</note>
  <outline>
    <contour>
      <point x="550" y="-35" type="curve" smooth="yes"/>
      <point x="872" y="-35"/>
      <point x="1074" y="126"/>
      <point x="1072" y="382" type="curve" smooth="yes"/>
      <point x="1070" y="595"/>
      <point x="932" y="758"/>
      <point x="610" y="871" type="curve" smooth="yes"/>
      <point x="493" y="912"/>
      <point x="353" y="961"/>
      <point x="351" y="1108" type="curve" smooth="yes"/>
      <point x="349" y="1324"/>
      <point x="467" y="1430"/>
      <point x="570" y="1431" type="curve" smooth="yes"/>
      <point x="779" y="1433"/>
      <point x="922" y="1314"/>
      <point x="923" y="1143" type="curve" smooth="yes"/>
      <point x="925" y="962"/>
      <point x="818" y="859"/>
      <point x="679" y="805" type="curve"/>
      <point x="722" y="805" type="line"/>
      <point x="891" y="870"/>
      <point x="966" y="993"/>
      <point x="965" y="1140" type="curve" smooth="yes"/>
      <point x="963" y="1330"/>
      <point x="809" y="1463"/>
      <point x="581" y="1461" type="curve" smooth="yes"/>
      <point x="327" y="1459"/>
      <point x="134" y="1321"/>
      <point x="135" y="1102" type="curve" smooth="yes"/>
      <point x="136" y="889"/>
      <point x="257" y="760"/>
      <point x="479" y="682" type="curve" smooth="yes"/>
      <point x="718" y="598"/>
      <point x="816" y="521"/>
      <point x="816" y="329" type="curve" smooth="yes"/>
      <point x="816" y="107"/>
      <point x="725" y="-4"/>
      <point x="560" y="-5" type="curve" smooth="yes"/>
      <point x="275" y="-8"/>
      <point x="128" y="118"/>
      <point x="126" y="344" type="curve" smooth="yes"/>
      <point x="124" y="562"/>
      <point x="279" y="689"/>
      <point x="412" y="751" type="curve"/>
      <point x="374" y="757" type="line"/>
      <point x="176" y="674"/>
      <point x="79" y="526"/>
      <point x="80" y="344" type="curve" smooth="yes"/>
      <point x="82" y="101"/>
      <point x="243" y="-35"/>
    </contour>
  </outline>
</glyph>
<glyph name="greater" format="2">
  <advance width="1044"/>
  <unicode hex="003E"/>
  <note>
greater
</note>
  <outline>
    <contour>
      <point x="99" y="194" type="line"/>
      <point x="997" y="614" type="line"/>
      <point x="997" y="752" type="line"/>
      <point x="99" y="1172" type="line"/>
      <point x="99" y="1012" type="line"/>
      <point x="804" y="684" type="line"/>
      <point x="99" y="354" type="line"/>
    </contour>
  </outline>
</glyph>
<glyph name="question" format="2">
  <advance width="1038"/>
  <unicode hex="003F"/>
  <note>
question
</note>
  <outline>
    <contour>
      <point x="404" y="432" type="curve"/>
      <point x="560" y="432" type="line"/>
      <point x="530" y="486"/>
      <point x="491" y="588"/>
      <point x="491" y="636" type="curve" smooth="yes"/>
      <point x="491" y="806"/>
      <point x="974" y="885"/>
      <point x="974" y="1180" type="curve" smooth="yes"/>
      <point x="974" y="1381"/>
      <point x="754" y="1476"/>
      <point x="474" y="1476" type="curve" smooth="yes"/>
      <point x="162" y="1476"/>
      <point x="55" y="1358"/>
      <point x="55" y="1182" type="curve" smooth="yes"/>
      <point x="55" y="1170"/>
      <point x="55" y="1158"/>
      <point x="55" y="1137" type="curve"/>
      <point x="289" y="1137" type="line"/>
      <point x="284" y="1160"/>
      <point x="283" y="1191"/>
      <point x="283" y="1205" type="curve" smooth="yes"/>
      <point x="283" y="1318"/>
      <point x="352" y="1446"/>
      <point x="472" y="1446" type="curve" smooth="yes"/>
      <point x="586" y="1446"/>
      <point x="679" y="1329"/>
      <point x="679" y="1173" type="curve" smooth="yes"/>
      <point x="679" y="892"/>
      <point x="375" y="926"/>
      <point x="375" y="624" type="curve" smooth="yes"/>
      <point x="375" y="599"/>
      <point x="377" y="508"/>
    </contour>
    <contour>
      <point x="493" y="-27" type="curve" smooth="yes"/>
      <point x="566" y="-27"/>
      <point x="626" y="32"/>
      <point x="626" y="106" type="curve" smooth="yes"/>
      <point x="626" y="179"/>
      <point x="566" y="238"/>
      <point x="493" y="238" type="curve" smooth="yes"/>
      <point x="420" y="238"/>
      <point x="360" y="179"/>
      <point x="360" y="106" type="curve" smooth="yes"/>
      <point x="360" y="32"/>
      <point x="420" y="-27"/>
    </contour>
  </outline>
</glyph>
<glyph name="D" format="2">
  <advance width="1496"/>
  <unicode hex="0044"/>
  <note>
D
</note>
  <anchor x="796" y="0" name="bottom"/>
  <anchor x="310" y="722" name="center"/>
  <anchor x="796" y="1445" name="top"/>
  <outline>
    <contour>
      <point x="170" y="0" type="line"/>
      <point x="579" y="0" type="line" smooth="yes"/>
      <point x="861" y="0"/>
      <point x="1076" y="61"/>
      <point x="1220" y="191" type="curve" smooth="yes"/>
      <point x="1350" y="309"/>
      <point x="1420" y="482"/>
      <point x="1420" y="702" type="curve" smooth="yes"/>
      <point x="1420" y="921"/>
      <point x="1349" y="1092"/>
      <point x="1223" y="1215" type="curve" smooth="yes"/>
      <point x="1068" y="1366"/>
      <point x="831" y="1445"/>
      <point x="517" y="1445" type="curve" smooth="yes"/>
      <point x="170" y="1445" type="line"/>
    </contour>
    <contour>
      <point x="430" y="4" type="line"/>
      <point x="430" y="1441" type="line"/>
      <point x="221" y="1419" type="line"/>
      <point x="523" y="1419" type="line" smooth="yes"/>
      <point x="903" y="1419"/>
      <point x="1114" y="1162"/>
      <point x="1114" y="709" type="curve" smooth="yes"/>
      <point x="1114" y="257"/>
      <point x="903" y="26"/>
      <point x="523" y="26" type="curve" smooth="yes"/>
      <point x="221" y="26" type="line"/>
    </contour>
  </outline>
</glyph>
<glyph name="G" format="2">
  <advance width="1620"/>
  <unicode hex="0047"/>
  <note>
G
</note>
  <anchor x="814" y="0" name="bottom"/>
  <anchor x="814" y="1440" name="top"/>
  <outline>
    <contour>
      <point x="840" y="-41" type="curve" smooth="yes"/>
      <point x="1243" y="-27"/>
      <point x="1548" y="275"/>
      <point x="1576" y="665" type="curve"/>
      <point x="1277" y="665" type="line"/>
      <point x="1264" y="287"/>
      <point x="1065" y="-3"/>
      <point x="839" y="-11" type="curve"/>
      <point x="602" y="-19"/>
      <point x="381" y="286"/>
      <point x="374" y="696" type="curve" smooth="yes"/>
      <point x="367" y="1107"/>
      <point x="580" y="1436"/>
      <point x="824" y="1444" type="curve"/>
      <point x="970" y="1449"/>
      <point x="1191" y="1341"/>
      <point x="1247" y="1101" type="curve"/>
      <point x="1440" y="1211" type="line"/>
      <point x="1333" y="1409"/>
      <point x="1041" y="1482"/>
      <point x="824" y="1474" type="curve" smooth="yes"/>
      <point x="388" y="1459"/>
      <point x="66" y="1112"/>
      <point x="74" y="685" type="curve" smooth="yes"/>
      <point x="82" y="260"/>
      <point x="411" y="-56"/>
    </contour>
    <contour>
      <point x="783" y="645" type="line"/>
      <point x="1377" y="645" type="line"/>
      <point x="1377" y="665" type="line"/>
      <point x="783" y="665" type="line"/>
    </contour>
  </outline>
</glyph>
<glyph name="J" format="2">
  <advance width="948"/>
  <unicode hex="004A"/>
  <note>
J
</note>
  <anchor x="458" y="0" name="bottom"/>
  <anchor x="458" y="1440" name="top"/>
  <outline>
    <contour>
      <point x="31" y="-10" type="line"/>
      <point x="62" y="-90"/>
      <point x="175" y="-167"/>
      <point x="391" y="-167" type="curve" smooth="yes"/>
      <point x="639" y="-167"/>
      <point x="791" y="27"/>
      <point x="791" y="374" type="curve" smooth="yes"/>
      <point x="791" y="1445" type="line"/>
      <point x="511" y="1445" type="line"/>
      <point x="511" y="336" type="line" smooth="yes"/>
      <point x="511" y="-15"/>
      <point x="486" y="-133"/>
      <point x="352" y="-133" type="curve" smooth="yes"/>
      <point x="232" y="-133"/>
      <point x="162" y="-42"/>
      <point x="91" y="139" type="curve"/>
    </contour>
  </outline>
</glyph>
<glyph name="P" format="2">
  <advance width="1180"/>
  <unicode hex="0050"/>
  <note>
P
</note>
  <anchor x="603" y="0" name="bottom"/>
  <anchor x="603" y="1445" name="top"/>
  <outline>
    <contour>
      <point x="167" y="0" type="line"/>
      <point x="447" y="0" type="line"/>
      <point x="447" y="652" type="line"/>
      <point x="251" y="633" type="line"/>
      <point x="589" y="634" type="line" smooth="yes"/>
      <point x="763" y="635"/>
      <point x="906" y="660"/>
      <point x="1002" y="738" type="curve" smooth="yes"/>
      <point x="1084" y="805"/>
      <point x="1126" y="912"/>
      <point x="1123" y="1066" type="curve" smooth="yes"/>
      <point x="1120" y="1198"/>
      <point x="1082" y="1288"/>
      <point x="1006" y="1347" type="curve" smooth="yes"/>
      <point x="916" y="1417"/>
      <point x="773" y="1445"/>
      <point x="575" y="1445" type="curve" smooth="yes"/>
      <point x="167" y="1445" type="line"/>
    </contour>
    <contour>
      <point x="447" y="643" type="line"/>
      <point x="447" y="1428" type="line"/>
      <point x="206" y="1421" type="line"/>
      <point x="528" y="1419" type="line" smooth="yes"/>
      <point x="717" y="1418"/>
      <point x="850" y="1282"/>
      <point x="855" y="1045" type="curve" smooth="yes"/>
      <point x="860" y="809"/>
      <point x="736" y="659"/>
      <point x="540" y="660" type="curve" smooth="yes"/>
      <point x="250" y="661" type="line"/>
    </contour>
  </outline>
</glyph>
<glyph name="R" format="2">
  <advance width="1282"/>
  <unicode hex="0052"/>
  <note>
R
</note>
  <anchor x="648" y="0" name="bottom"/>
  <anchor x="648" y="1440" name="top"/>
  <outline>
    <contour>
      <point x="168" y="0" type="line"/>
      <point x="448" y="0" type="line"/>
      <point x="448" y="635" type="line"/>
      <point x="297" y="624" type="line"/>
      <point x="590" y="624" type="line"/>
      <point x="684" y="628" type="line"/>
      <point x="972" y="646"/>
      <point x="1130" y="767"/>
      <point x="1124" y="1053" type="curve" smooth="yes"/>
      <point x="1116" y="1406"/>
      <point x="852" y="1445"/>
      <point x="576" y="1445" type="curve" smooth="yes"/>
      <point x="168" y="1445" type="line"/>
    </contour>
    <contour>
      <point x="297" y="650" type="line"/>
      <point x="448" y="643" type="line"/>
      <point x="448" y="1431" type="line"/>
      <point x="297" y="1422" type="line"/>
      <point x="529" y="1419" type="line" smooth="yes"/>
      <point x="718" y="1417"/>
      <point x="851" y="1269"/>
      <point x="856" y="1032" type="curve" smooth="yes"/>
      <point x="860" y="796"/>
      <point x="737" y="650"/>
      <point x="541" y="650" type="curve" smooth="yes"/>
    </contour>
    <contour>
      <point x="590" y="624" type="line"/>
      <point x="695" y="610"/>
      <point x="744" y="606"/>
      <point x="805" y="516" type="curve" smooth="yes"/>
      <point x="849" y="451"/>
      <point x="861" y="409"/>
      <point x="879" y="296" type="curve" smooth="yes"/>
      <point x="901" y="160"/>
      <point x="922" y="84"/>
      <point x="953" y="0" type="curve"/>
      <point x="1213" y="0" type="line"/>
      <point x="1195" y="74"/>
      <point x="1155" y="195"/>
      <point x="1135" y="320" type="curve" smooth="yes"/>
      <point x="1110" y="477"/>
      <point x="1051" y="531"/>
      <point x="1019" y="559" type="curve" smooth="yes"/>
      <point x="914" y="651"/>
      <point x="840" y="643"/>
      <point x="739" y="652" type="curve"/>
    </contour>
  </outline>
</glyph>
<glyph name="t" format="2">
  <advance width="712"/>
  <unicode hex="0074"/>
  <note>
t
</note>
  <anchor x="383" y="0" name="bottom"/>
  <anchor x="303" y="655" name="center"/>
  <anchor x="363" y="929" name="top"/>
  <anchor x="603" y="1429" name="topright"/>
  <outline>
    <contour>
      <point x="424" y="-33" type="curve" smooth="yes"/>
      <point x="540" y="-33"/>
      <point x="682" y="5"/>
      <point x="703" y="24" type="curve"/>
      <point x="703" y="66" type="line"/>
      <point x="652" y="36"/>
      <point x="535" y="11"/>
      <point x="489" y="11" type="curve" smooth="yes"/>
      <point x="361" y="11"/>
      <point x="439" y="208"/>
      <point x="439" y="726" type="curve" smooth="yes"/>
      <point x="439" y="899" type="line"/>
      <point x="629" y="899" type="line"/>
      <point x="629" y="929" type="line"/>
      <point x="439" y="929" type="line"/>
      <point x="439" y="1346" type="line"/>
      <point x="379" y="1346" type="line"/>
      <point x="379" y="967"/>
      <point x="187" y="929"/>
      <point x="15" y="929" type="curve"/>
      <point x="15" y="899" type="line"/>
      <point x="157" y="899" type="line"/>
      <point x="157" y="372" type="line" smooth="yes"/>
      <point x="157" y="60"/>
      <point x="242" y="-33"/>
    </contour>
  </outline>
</glyph>
<glyph name="w" format="2">
  <advance width="1554"/>
  <unicode hex="0077"/>
  <note>
w
</note>
  <anchor x="777" y="0" name="bottom"/>
  <anchor x="777" y="929" name="top"/>
  <outline>
    <contour>
      <point x="996" y="-1" type="line"/>
      <point x="1125" y="-1" type="line"/>
      <point x="1546" y="929" type="line"/>
      <point x="1482" y="929" type="line"/>
      <point x="1133" y="161" type="line"/>
      <point x="1179" y="185" type="line"/>
      <point x="846" y="929" type="line"/>
      <point x="585" y="929" type="line"/>
    </contour>
    <contour>
      <point x="420" y="-1" type="line"/>
      <point x="549" y="-1" type="line"/>
      <point x="844" y="653" type="line"/>
      <point x="864" y="841" type="line"/>
      <point x="569" y="185" type="line"/>
      <point x="596" y="200" type="line"/>
      <point x="271" y="929" type="line"/>
      <point x="9" y="929" type="line"/>
    </contour>
    <contour>
      <point x="913" y="760" type="line"/>
      <point x="988" y="929" type="line"/>
      <point x="924" y="929" type="line"/>
      <point x="885" y="839" type="line"/>
    </contour>
  </outline>
</glyph>
<glyph name="z" format="2">
  <advance width="908"/>
  <unicode hex="007A"/>
  <note>
z
</note>
  <anchor x="453" y="0" name="bottom"/>
  <anchor x="453" y="465" name="center"/>
  <anchor x="453" y="929" name="top"/>
  <outline>
    <contour>
      <point x="17" y="0" type="line"/>
      <point x="859" y="0" type="line"/>
      <point x="859" y="30" type="line"/>
      <point x="119" y="30" type="line"/>
      <point x="261" y="16" type="line"/>
      <point x="885" y="929" type="line"/>
      <point x="59" y="929" type="line"/>
      <point x="59" y="899" type="line"/>
      <point x="783" y="899" type="line"/>
      <point x="645" y="918" type="line"/>
    </contour>
  </outline>
</glyph>
<glyph name="sterling" format="2">
  <advance width="1439"/>
  <unicode hex="00A3"/>
  <note>
sterling
</note>
  <outline>
    <contour>
      <point x="319" y="61" type="curve" smooth="yes"/>
      <point x="599" y="69"/>
      <point x="928" y="186"/>
      <point x="928" y="490" type="curve" smooth="yes"/>
      <point x="928" y="562"/>
      <point x="909" y="737"/>
      <point x="722" y="836" type="curve" smooth="yes"/>
      <point x="519" y="943"/>
      <point x="429" y="1022"/>
      <point x="429" y="1147" type="curve" smooth="yes"/>
      <point x="429" y="1295"/>
      <point x="541" y="1443"/>
      <point x="685" y="1443" type="curve" smooth="yes"/>
      <point x="836" y="1443"/>
      <point x="1019" y="1365"/>
      <point x="1064" y="1232" type="curve"/>
      <point x="1187" y="1249" type="line"/>
      <point x="1154" y="1367"/>
      <point x="974" y="1479"/>
      <point x="703" y="1479" type="curve" smooth="yes"/>
      <point x="387" y="1479"/>
      <point x="178" y="1301"/>
      <point x="178" y="1060" type="curve" smooth="yes"/>
      <point x="178" y="965"/>
      <point x="211" y="805"/>
      <point x="398" y="710" type="curve" smooth="yes"/>
      <point x="524" y="646"/>
      <point x="664" y="536"/>
      <point x="664" y="418" type="curve" smooth="yes"/>
      <point x="664" y="262"/>
      <point x="466" y="70"/>
      <point x="305" y="71" type="curve"/>
      <point x="305" y="66"/>
      <point x="313" y="62"/>
    </contour>
    <contour>
      <point x="144" y="0" type="line"/>
      <point x="1356" y="0" type="line"/>
      <point x="1356" y="76" type="line"/>
      <point x="144" y="76" type="line"/>
    </contour>
    <contour>
      <point x="137" y="629" type="line"/>
      <point x="1176" y="629" type="line"/>
      <point x="1176" y="698" type="line"/>
      <point x="137" y="698" type="line"/>
    </contour>
  </outline>
</glyph>
<glyph name="currency" format="2">
  <advance width="1401"/>
  <unicode hex="00A4"/>
  <note>
currency
</note>
  <outline>
    <contour>
      <point x="227" y="158" type="line"/>
      <point x="359" y="290" type="line"/>
      <point x="451" y="212"/>
      <point x="570" y="164"/>
      <point x="700" y="164" type="curve" smooth="yes"/>
      <point x="830" y="164"/>
      <point x="950" y="212"/>
      <point x="1041" y="291" type="curve"/>
      <point x="1177" y="154" type="line"/>
      <point x="1248" y="224" type="line"/>
      <point x="1110" y="363" type="line"/>
      <point x="1179" y="452"/>
      <point x="1221" y="563"/>
      <point x="1221" y="685" type="curve" smooth="yes"/>
      <point x="1221" y="811"/>
      <point x="1178" y="929"/>
      <point x="1095" y="1026" type="curve"/>
      <point x="1227" y="1158" type="line"/>
      <point x="1157" y="1229" type="line"/>
      <point x="1023" y="1095" type="line"/>
      <point x="934" y="1165"/>
      <point x="822" y="1207"/>
      <point x="700" y="1207" type="curve" smooth="yes"/>
      <point x="578" y="1207"/>
      <point x="466" y="1165"/>
      <point x="377" y="1095" type="curve"/>
      <point x="243" y="1229" type="line"/>
      <point x="173" y="1159" type="line"/>
      <point x="305" y="1027" type="line"/>
      <point x="227" y="935"/>
      <point x="179" y="816"/>
      <point x="179" y="686" type="curve" smooth="yes"/>
      <point x="179" y="563"/>
      <point x="221" y="451"/>
      <point x="291" y="362" type="curve"/>
      <point x="157" y="228" type="line"/>
    </contour>
    <contour>
      <point x="700" y="257" type="curve" smooth="yes"/>
      <point x="463" y="257"/>
      <point x="272" y="448"/>
      <point x="272" y="685" type="curve" smooth="yes"/>
      <point x="272" y="922"/>
      <point x="463" y="1113"/>
      <point x="700" y="1113" type="curve" smooth="yes"/>
      <point x="937" y="1113"/>
      <point x="1128" y="922"/>
      <point x="1128" y="685" type="curve" smooth="yes"/>
      <point x="1128" y="448"/>
      <point x="937" y="257"/>
    </contour>
  </outline>
</glyph>
<glyph name="section" format="2">
  <advance width="1262"/>
  <unicode hex="00A7"/>
  <note>
section
</note>
  <outline>
    <contour>
      <point x="621" y="-498" type="curve" smooth="yes"/>
      <point x="893" y="-498"/>
      <point x="1097" y="-381"/>
      <point x="1097" y="-165" type="curve" smooth="yes"/>
      <point x="1097" y="6"/>
      <point x="980" y="135"/>
      <point x="732" y="194" type="curve"/>
      <point x="728" y="177" type="line"/>
      <point x="1026" y="170"/>
      <point x="1159" y="287"/>
      <point x="1159" y="497" type="curve" smooth="yes"/>
      <point x="1159" y="700"/>
      <point x="933" y="746"/>
      <point x="657" y="862" type="curve" smooth="yes"/>
      <point x="499" y="928"/>
      <point x="436" y="1026"/>
      <point x="436" y="1187" type="curve" smooth="yes"/>
      <point x="436" y="1289"/>
      <point x="488" y="1488"/>
      <point x="632" y="1488" type="curve" smooth="yes"/>
      <point x="739" y="1488"/>
      <point x="819" y="1379"/>
      <point x="826" y="1144" type="curve"/>
      <point x="1088" y="1144" type="line"/>
      <point x="1088" y="1179" type="line" smooth="yes"/>
      <point x="1088" y="1398"/>
      <point x="922" y="1520"/>
      <point x="643" y="1520" type="curve" smooth="yes"/>
      <point x="353" y="1520"/>
      <point x="160" y="1394"/>
      <point x="160" y="1189" type="curve" smooth="yes"/>
      <point x="160" y="1029"/>
      <point x="278" y="918"/>
      <point x="552" y="825" type="curve"/>
      <point x="531" y="847" type="line"/>
      <point x="262" y="882"/>
      <point x="113" y="769"/>
      <point x="113" y="525" type="curve" smooth="yes"/>
      <point x="113" y="337"/>
      <point x="249" y="305"/>
      <point x="603" y="172" type="curve" smooth="yes"/>
      <point x="739" y="121"/>
      <point x="826" y="29"/>
      <point x="826" y="-159" type="curve" smooth="yes"/>
      <point x="826" y="-322"/>
      <point x="759" y="-467"/>
      <point x="625" y="-467" type="curve" smooth="yes"/>
      <point x="526" y="-467"/>
      <point x="421" y="-389"/>
      <point x="414" y="-114" type="curve"/>
      <point x="149" y="-114" type="line"/>
      <point x="149" y="-149" type="line" smooth="yes"/>
      <point x="149" y="-358"/>
      <point x="323" y="-498"/>
    </contour>
    <contour>
      <point x="633" y="227" type="curve" smooth="yes"/>
      <point x="499" y="227"/>
      <point x="389" y="355"/>
      <point x="389" y="518" type="curve" smooth="yes"/>
      <point x="389" y="682"/>
      <point x="499" y="807"/>
      <point x="633" y="807" type="curve" smooth="yes"/>
      <point x="768" y="807"/>
      <point x="883" y="681"/>
      <point x="883" y="518" type="curve" smooth="yes"/>
      <point x="883" y="355"/>
      <point x="766" y="227"/>
    </contour>
  </outline>
</glyph>
<glyph name="ordfeminine" format="2">
  <advance width="1031"/>
  <unicode hex="00AA"/>
  <note>
ordfeminine
</note>
  <outline>
    <contour>
      <point x="455" y="825" type="curve" smooth="yes"/>
      <point x="508" y="825"/>
      <point x="572" y="844"/>
      <point x="632" y="921" type="curve"/>
      <point x="632" y="833" type="line"/>
      <point x="870" y="833" type="line"/>
      <point x="870" y="1455" type="line"/>
      <point x="630" y="1455" type="line"/>
      <point x="630" y="1374" type="line"/>
      <point x="570" y="1452"/>
      <point x="503" y="1471"/>
      <point x="451" y="1471" type="curve" smooth="yes"/>
      <point x="254" y="1471"/>
      <point x="122" y="1339"/>
      <point x="122" y="1146" type="curve" smooth="yes"/>
      <point x="122" y="951"/>
      <point x="258" y="825"/>
    </contour>
    <contour>
      <point x="471" y="856" type="curve" smooth="yes"/>
      <point x="357" y="856"/>
      <point x="342" y="1014"/>
      <point x="342" y="1158" type="curve" smooth="yes"/>
      <point x="342" y="1305"/>
      <point x="358" y="1440"/>
      <point x="469" y="1440" type="curve" smooth="yes"/>
      <point x="612" y="1440"/>
      <point x="632" y="1299"/>
      <point x="632" y="1144" type="curve" smooth="yes"/>
      <point x="632" y="1043"/>
      <point x="615" y="856"/>
    </contour>
    <contour>
      <point x="100" y="717" type="line"/>
      <point x="894" y="717" type="line"/>
      <point x="894" y="757" type="line"/>
      <point x="100" y="757" type="line"/>
    </contour>
  </outline>
</glyph>
<glyph name="registered" format="2">
  <advance width="1777"/>
  <unicode hex="00AE"/>
  <note>
registered
</note>
  <outline>
    <contour>
      <point x="887" y="-25" type="curve" smooth="yes"/>
      <point x="1092" y="-25"/>
      <point x="1304" y="59"/>
      <point x="1442" y="193" type="curve" smooth="yes"/>
      <point x="1598" y="345"/>
      <point x="1670" y="505"/>
      <point x="1670" y="708" type="curve" smooth="yes"/>
      <point x="1670" y="907"/>
      <point x="1597" y="1072"/>
      <point x="1445" y="1225" type="curve" smooth="yes"/>
      <point x="1311" y="1359"/>
      <point x="1100" y="1441"/>
      <point x="887" y="1441" type="curve" smooth="yes"/>
      <point x="687" y="1441"/>
      <point x="475" y="1366"/>
      <point x="341" y="1231" type="curve" smooth="yes"/>
      <point x="178" y="1067"/>
      <point x="106" y="904"/>
      <point x="106" y="708" type="curve" smooth="yes"/>
      <point x="106" y="512"/>
      <point x="179" y="349"/>
      <point x="335" y="193" type="curve" smooth="yes"/>
      <point x="467" y="60"/>
      <point x="679" y="-25"/>
    </contour>
    <contour>
      <point x="885" y="36" type="curve" smooth="yes"/>
      <point x="720" y="36"/>
      <point x="586" y="98"/>
      <point x="452" y="235" type="curve" smooth="yes"/>
      <point x="342" y="347"/>
      <point x="269" y="531"/>
      <point x="269" y="708" type="curve" smooth="yes"/>
      <point x="269" y="887"/>
      <point x="344" y="1075"/>
      <point x="456" y="1190" type="curve" smooth="yes"/>
      <point x="590" y="1325"/>
      <point x="715" y="1382"/>
      <point x="887" y="1382" type="curve" smooth="yes"/>
      <point x="1059" y="1382"/>
      <point x="1192" y="1323"/>
      <point x="1330" y="1183" type="curve" smooth="yes"/>
      <point x="1438" y="1076"/>
      <point x="1509" y="887"/>
      <point x="1509" y="704" type="curve" smooth="yes"/>
      <point x="1509" y="525"/>
      <point x="1436" y="341"/>
      <point x="1328" y="235" type="curve" smooth="yes"/>
      <point x="1188" y="96"/>
      <point x="1054" y="36"/>
    </contour>
    <contour>
      <point x="581" y="342" type="line"/>
      <point x="799" y="342" type="line"/>
      <point x="799" y="659" type="line"/>
      <point x="888" y="659" type="line"/>
      <point x="1081" y="342" type="line"/>
      <point x="1267" y="342" type="line"/>
      <point x="1058" y="667" type="line"/>
      <point x="1188" y="711"/>
      <point x="1251" y="782"/>
      <point x="1251" y="883" type="curve" smooth="yes"/>
      <point x="1251" y="1027"/>
      <point x="1139" y="1098"/>
      <point x="909" y="1098" type="curve" smooth="yes"/>
      <point x="581" y="1098" type="line"/>
    </contour>
    <contour>
      <point x="799" y="741" type="line"/>
      <point x="799" y="1025" type="line"/>
      <point x="871" y="1025" type="line" smooth="yes"/>
      <point x="993" y="1025"/>
      <point x="1052" y="979"/>
      <point x="1052" y="884" type="curve" smooth="yes"/>
      <point x="1052" y="788"/>
      <point x="994" y="741"/>
      <point x="875" y="741" type="curve" smooth="yes"/>
    </contour>
  </outline>
</glyph>
<glyph name="plusminus" format="2">
  <advance width="1044"/>
  <unicode hex="00B1"/>
  <note>
plusminus
</note>
  <outline>
    <contour>
      <point x="471" y="345" type="line"/>
      <point x="673" y="345" type="line"/>
      <point x="673" y="567" type="line"/>
      <point x="995" y="567" type="line"/>
      <point x="995" y="769" type="line"/>
      <point x="673" y="769" type="line"/>
      <point x="673" y="991" type="line"/>
      <point x="471" y="991" type="line"/>
      <point x="471" y="769" type="line"/>
      <point x="149" y="769" type="line"/>
      <point x="149" y="567" type="line"/>
      <point x="471" y="567" type="line"/>
    </contour>
    <contour>
      <point x="148" y="27" type="line"/>
      <point x="994" y="27" type="line"/>
      <point x="994" y="229" type="line"/>
      <point x="148" y="229" type="line"/>
    </contour>
  </outline>
</glyph>
<glyph name="paragraph" format="2">
  <advance width="1324"/>
  <unicode hex="00B6"/>
  <note>
paragraph
</note>
  <outline>
    <contour>
      <point x="457" y="0" type="line"/>
      <point x="711" y="0" type="line"/>
      <point x="711" y="1433" type="line"/>
      <point x="849" y="1433" type="line"/>
      <point x="849" y="0" type="line"/>
      <point x="1101" y="0" type="line"/>
      <point x="1101" y="1433" type="line"/>
      <point x="1193" y="1433" type="line"/>
      <point x="1193" y="1459" type="line"/>
      <point x="540" y="1459" type="line" smooth="yes"/>
      <point x="276" y="1459"/>
      <point x="91" y="1279"/>
      <point x="91" y="1047" type="curve" smooth="yes"/>
      <point x="91" y="841"/>
      <point x="234" y="640"/>
      <point x="457" y="640" type="curve"/>
    </contour>
  </outline>
</glyph>
<glyph name="AE" format="2">
  <advance width="1908"/>
  <unicode hex="00C6"/>
  <note>
AE
</note>
  <anchor x="976" y="0" name="bottom"/>
  <anchor x="976" y="1440" name="top"/>
  <outline>
    <contour>
      <point x="30" y="0" type="line"/>
      <point x="220" y="0" type="line"/>
      <point x="991" y="1445" type="line"/>
      <point x="802" y="1445" type="line"/>
    </contour>
    <contour>
      <point x="398" y="411" type="line"/>
      <point x="1076" y="411" type="line"/>
      <point x="1050" y="437" type="line"/>
      <point x="426" y="437" type="line"/>
    </contour>
    <contour>
      <point x="977" y="0" type="line"/>
      <point x="1841" y="0" type="line"/>
      <point x="1841" y="26" type="line"/>
      <point x="1056" y="26" type="line"/>
      <point x="1217" y="13" type="line"/>
      <point x="1217" y="752" type="line"/>
      <point x="1084" y="715" type="line"/>
      <point x="1841" y="715" type="line"/>
      <point x="1841" y="741" type="line"/>
      <point x="1056" y="741" type="line"/>
      <point x="1217" y="708" type="line"/>
      <point x="1217" y="1431" type="line"/>
      <point x="944" y="1419" type="line"/>
      <point x="1841" y="1419" type="line"/>
      <point x="1841" y="1445" type="line"/>
      <point x="977" y="1445" type="line"/>
    </contour>
  </outline>
</glyph>
<glyph name="germandbls" format="2">
  <advance width="1383"/>
  <unicode hex="00DF"/>
  <note>
germandbls
</note>
  <anchor x="699" y="0" name="bottom"/>
  <anchor x="699" y="929" name="top"/>
  <outline>
    <contour>
      <point x="906" y="-36" type="curve" smooth="yes"/>
      <point x="1163" y="-36"/>
      <point x="1358" y="41"/>
      <point x="1358" y="265" type="curve" smooth="yes"/>
      <point x="1358" y="446"/>
      <point x="1230" y="552"/>
      <point x="1033" y="596" type="curve" smooth="yes"/>
      <point x="927" y="620"/>
      <point x="812" y="657"/>
      <point x="812" y="742" type="curve" smooth="yes"/>
      <point x="812" y="809"/>
      <point x="802" y="904"/>
      <point x="904" y="980" type="curve" smooth="yes"/>
      <point x="992" y="1045"/>
      <point x="1184" y="1030"/>
      <point x="1184" y="1241" type="curve" smooth="yes"/>
      <point x="1184" y="1472"/>
      <point x="954" y="1579"/>
      <point x="665" y="1579" type="curve" smooth="yes"/>
      <point x="331" y="1579"/>
      <point x="178" y="1436"/>
      <point x="178" y="1152" type="curve" smooth="yes"/>
      <point x="178" y="0" type="line"/>
      <point x="458" y="0" type="line"/>
      <point x="458" y="1152" type="line" smooth="yes"/>
      <point x="458" y="1496"/>
      <point x="534" y="1545"/>
      <point x="678" y="1545" type="curve" smooth="yes"/>
      <point x="785" y="1545"/>
      <point x="944" y="1508"/>
      <point x="944" y="1234" type="curve" smooth="yes"/>
      <point x="944" y="1173"/>
      <point x="936" y="1050"/>
      <point x="874" y="1004" type="curve" smooth="yes"/>
      <point x="780" y="935"/>
      <point x="598" y="919"/>
      <point x="598" y="725" type="curve" smooth="yes"/>
      <point x="598" y="604"/>
      <point x="669" y="491"/>
      <point x="947" y="425" type="curve" smooth="yes"/>
      <point x="981" y="417"/>
      <point x="1108" y="372"/>
      <point x="1108" y="226" type="curve" smooth="yes"/>
      <point x="1108" y="113"/>
      <point x="1032" y="-2"/>
      <point x="906" y="-2" type="curve" smooth="yes"/>
      <point x="776" y="-2"/>
      <point x="670" y="43"/>
      <point x="647" y="191" type="curve"/>
      <point x="572" y="143" type="line"/>
      <point x="617" y="43"/>
      <point x="707" y="-36"/>
    </contour>
    <contour>
      <point x="2" y="900" type="line"/>
      <point x="394" y="900" type="line"/>
      <point x="394" y="930" type="line"/>
      <point x="2" y="930" type="line"/>
    </contour>
  </outline>
</glyph>
<glyph name="divide" format="2">
  <advance width="1044"/>
  <unicode hex="00F7"/>
  <note>
divide
</note>
  <outline>
    <contour>
      <point x="81" y="525" type="line"/>
      <point x="1381" y="525" type="line"/>
      <point x="1381" y="669" type="line"/>
      <point x="81" y="669" type="line"/>
    </contour>
    <contour>
      <point x="731" y="21" type="curve" smooth="yes"/>
      <point x="828" y="21"/>
      <point x="906" y="99"/>
      <point x="906" y="196" type="curve" smooth="yes"/>
      <point x="906" y="293"/>
      <point x="828" y="371"/>
      <point x="731" y="371" type="curve" smooth="yes"/>
      <point x="634" y="371"/>
      <point x="556" y="293"/>
      <point x="556" y="196" type="curve" smooth="yes"/>
      <point x="556" y="99"/>
      <point x="634" y="21"/>
    </contour>
    <contour>
      <point x="731" y="823" type="curve" smooth="yes"/>
      <point x="828" y="823"/>
      <point x="906" y="901"/>
      <point x="906" y="998" type="curve" smooth="yes"/>
      <point x="906" y="1095"/>
      <point x="828" y="1173"/>
      <point x="731" y="1173" type="curve" smooth="yes"/>
      <point x="634" y="1173"/>
      <point x="556" y="1095"/>
      <point x="556" y="998" type="curve" smooth="yes"/>
      <point x="556" y="901"/>
      <point x="634" y="823"/>
    </contour>
  </outline>
</glyph>
<glyph name="thorn" format="2">
  <advance width="1260"/>
  <unicode hex="00FE"/>
  <note>
thorn
</note>
  <anchor x="671" y="0" name="bottom"/>
  <anchor x="671" y="914" name="top"/>
  <outline>
    <contour>
      <point x="151" y="-526" type="line"/>
      <point x="483" y="-526" type="line"/>
      <point x="483" y="325" type="line"/>
      <point x="395" y="270" type="line"/>
      <point x="440" y="74"/>
      <point x="518" y="-41"/>
      <point x="734" y="-41" type="curve" smooth="yes"/>
      <point x="1021" y="-41"/>
      <point x="1211" y="152"/>
      <point x="1211" y="469" type="curve" smooth="yes"/>
      <point x="1211" y="768"/>
      <point x="1042" y="975"/>
      <point x="748" y="975" type="curve" smooth="yes"/>
      <point x="536" y="975"/>
      <point x="430" y="867"/>
      <point x="381" y="673" type="curve"/>
      <point x="479" y="609" type="line"/>
      <point x="479" y="1529" type="line"/>
      <point x="151" y="1529" type="line"/>
    </contour>
    <contour>
      <point x="702" y="31" type="curve" smooth="yes"/>
      <point x="584" y="31"/>
      <point x="469" y="234"/>
      <point x="469" y="472" type="curve" smooth="yes"/>
      <point x="469" y="702"/>
      <point x="578" y="903"/>
      <point x="697" y="903" type="curve" smooth="yes"/>
      <point x="806" y="903"/>
      <point x="875" y="733"/>
      <point x="875" y="464" type="curve" smooth="yes"/>
      <point x="875" y="197"/>
      <point x="808" y="31"/>
    </contour>
  </outline>
</glyph>
<glyph name="Schwa" format="2">
  <advance width="1626"/>
  <unicode hex="018F"/>
  <anchor x="809" y="0" name="bottom"/>
  <anchor x="809" y="1440" name="top"/>
  <outline>
    <contour>
      <point x="814" y="-41" type="curve" smooth="yes"/>
      <point x="1242" y="-26"/>
      <point x="1559" y="313"/>
      <point x="1552" y="738" type="curve" smooth="yes"/>
      <point x="1544" y="1169"/>
      <point x="1205" y="1489"/>
      <point x="788" y="1474" type="curve" smooth="yes"/>
      <point x="545" y="1465"/>
      <point x="334" y="1347"/>
      <point x="200" y="1166" type="curve"/>
      <point x="446" y="1166" type="line"/>
      <point x="529" y="1332"/>
      <point x="654" y="1439"/>
      <point x="788" y="1444" type="curve"/>
      <point x="1025" y="1452"/>
      <point x="1245" y="1136"/>
      <point x="1252" y="727" type="curve" smooth="yes"/>
      <point x="1259" y="319"/>
      <point x="1051" y="-3"/>
      <point x="813" y="-11" type="curve"/>
      <point x="576" y="-19"/>
      <point x="355" y="286"/>
      <point x="348" y="696" type="curve"/>
      <point x="48" y="696" type="line"/>
      <point x="55" y="262"/>
      <point x="385" y="-56"/>
    </contour>
    <contour>
      <point x="260" y="670" type="line"/>
      <point x="1356" y="670" type="line"/>
      <point x="1356" y="696" type="line"/>
      <point x="260" y="696" type="line"/>
    </contour>
  </outline>
</glyph>
<glyph name="gravecomb" format="2">
  <unicode hex="0300"/>
  <note>
grave
</note>
  <anchor x="244" y="929" name="_top"/>
  <anchor x="244" y="1395" name="top"/>
  <outline>
    <contour>
      <point x="310" y="1079" type="curve"/>
      <point x="446" y="1079" type="line"/>
      <point x="398" y="1209"/>
      <point x="327" y="1320"/>
      <point x="278" y="1395" type="curve"/>
      <point x="22" y="1395" type="line"/>
      <point x="72" y="1325"/>
      <point x="191" y="1191"/>
    </contour>
  </outline>
</glyph>
<glyph name="acutecomb" format="2">
  <unicode hex="0301"/>
  <note>
acute
</note>
  <anchor x="234" y="929" name="_top"/>
  <anchor x="234" y="1395" name="top"/>
  <outline>
    <contour>
      <point x="22" y="1079" type="curve"/>
      <point x="158" y="1079" type="line"/>
      <point x="277" y="1191"/>
      <point x="396" y="1325"/>
      <point x="446" y="1395" type="curve"/>
      <point x="190" y="1395" type="line"/>
      <point x="141" y="1320"/>
      <point x="70" y="1209"/>
    </contour>
  </outline>
</glyph>
<glyph name="circumflexcomb" format="2">
  <unicode hex="0302"/>
  <note>
circumflex
</note>
  <anchor x="392" y="929" name="_top"/>
  <anchor x="392" y="1485" name="top"/>
  <outline>
    <contour>
      <point x="22" y="1061" type="line"/>
      <point x="173" y="1061" type="line"/>
      <point x="386" y="1305" type="line"/>
      <point x="612" y="1061" type="line"/>
      <point x="762" y="1061" type="line"/>
      <point x="486" y="1485" type="line"/>
      <point x="296" y="1485" type="line"/>
    </contour>
  </outline>
</glyph>
<glyph name="dotaccentcomb" format="2">
  <unicode hex="0307"/>
  <anchor x="202" y="919" name="_top"/>
  <anchor x="202" y="1364" name="top"/>
  <outline>
    <contour>
      <point x="202" y="1047" type="curve" smooth="yes"/>
      <point x="290" y="1047"/>
      <point x="361" y="1118"/>
      <point x="361" y="1206" type="curve" smooth="yes"/>
      <point x="361" y="1294"/>
      <point x="290" y="1364"/>
      <point x="202" y="1364" type="curve" smooth="yes"/>
      <point x="114" y="1364"/>
      <point x="43" y="1294"/>
      <point x="43" y="1206" type="curve" smooth="yes"/>
      <point x="43" y="1118"/>
      <point x="114" y="1047"/>
    </contour>
  </outline>
</glyph>
<glyph name="ringcomb" format="2">
  <unicode hex="030A"/>
  <note>
ring
</note>
  <anchor x="256" y="912" name="_top"/>
  <anchor x="256" y="1477" name="top"/>
  <outline>
    <contour>
      <point x="256" y="1054" type="curve" smooth="yes"/>
      <point x="375" y="1054"/>
      <point x="471" y="1142"/>
      <point x="471" y="1249" type="curve" smooth="yes"/>
      <point x="471" y="1357"/>
      <point x="374" y="1446"/>
      <point x="256" y="1446" type="curve" smooth="yes"/>
      <point x="138" y="1446"/>
      <point x="41" y="1357"/>
      <point x="41" y="1249" type="curve" smooth="yes"/>
      <point x="41" y="1142"/>
      <point x="137" y="1054"/>
    </contour>
    <contour>
      <point x="256" y="1109" type="curve" smooth="yes"/>
      <point x="198" y="1109"/>
      <point x="151" y="1173"/>
      <point x="151" y="1249" type="curve" smooth="yes"/>
      <point x="151" y="1326"/>
      <point x="198" y="1390"/>
      <point x="256" y="1390" type="curve" smooth="yes"/>
      <point x="314" y="1390"/>
      <point x="361" y="1326"/>
      <point x="361" y="1249" type="curve" smooth="yes"/>
      <point x="361" y="1173"/>
      <point x="314" y="1109"/>
    </contour>
  </outline>
</glyph>
<glyph name="cedillacomb" format="2">
  <unicode hex="0327"/>
  <anchor x="231" y="10" name="_bottom"/>
  <anchor x="261.0" y="-421" name="bottom"/>
  <outline>
    <contour>
      <point x="248" y="-451" type="curve" smooth="yes"/>
      <point x="436" y="-451"/>
      <point x="527" y="-399"/>
      <point x="527" y="-292" type="curve" smooth="yes"/>
      <point x="527" y="-161"/>
      <point x="421" y="-88"/>
      <point x="294" y="-132" type="curve" smooth="yes"/>
      <point x="311" y="-126"/>
      <point x="238" y="-163"/>
      <point x="205" y="-177" type="curve"/>
      <point x="92" y="-245" type="line"/>
      <point x="212" y="-221"/>
      <point x="200" y="-223"/>
      <point x="244" y="-223" type="curve" smooth="yes"/>
      <point x="308" y="-223"/>
      <point x="347" y="-249"/>
      <point x="347" y="-292" type="curve" smooth="yes"/>
      <point x="347" y="-344"/>
      <point x="300" y="-377"/>
      <point x="226" y="-377" type="curve" smooth="yes"/>
      <point x="166" y="-377"/>
      <point x="121" y="-368"/>
      <point x="30" y="-339" type="curve"/>
      <point x="30" y="-403" type="line"/>
      <point x="114" y="-437"/>
      <point x="178" y="-451"/>
    </contour>
    <contour>
      <point x="92" y="-245" type="line"/>
      <point x="278" y="-182" type="line"/>
      <point x="376" y="0" type="line"/>
      <point x="221" y="0" type="line"/>
    </contour>
  </outline>
</glyph>
<glyph name="strokeshortcomb" format="2">
  <unicode hex="0335"/>
  <anchor x="433" y="752" name="_center"/>
  <outline>
    <contour>
      <point x="56" y="717" type="line"/>
      <point x="808" y="717" type="line"/>
      <point x="808" y="785" type="line"/>
      <point x="56" y="785" type="line"/>
    </contour>
  </outline>
</glyph>
<glyph name="slashshortcomb" format="2">
  <unicode hex="0337"/>
  <anchor x="380.0" y="735.0" name="_center"/>
  <outline>
    <contour>
      <point x="38" y="500" type="line"/>
      <point x="761" y="935" type="line"/>
      <point x="739" y="971" type="line"/>
      <point x="16" y="536" type="line"/>
    </contour>
  </outline>
</glyph>
<glyph name="slashlongcomb" format="2">
  <unicode hex="0338"/>
  <anchor x="386.0" y="469.0" name="_center"/>
  <outline>
    <contour>
      <point x="7" y="-113" type="line"/>
      <point x="69" y="-113" type="line"/>
      <point x="764" y="1051" type="line"/>
      <point x="702" y="1051" type="line"/>
    </contour>
  </outline>
</glyph>
<glyph name="Dje-cy" format="2">
  <advance width="1654"/>
  <unicode hex="0402"/>
  <outline>
    <contour>
      <point x="1030" y="-40" type="line"/>
      <point x="1412" y="-40"/>
      <point x="1537" y="180"/>
      <point x="1537" y="457" type="curve" smooth="yes"/>
      <point x="1537" y="774"/>
      <point x="1374" y="912"/>
      <point x="1112" y="912" type="curve" smooth="yes"/>
      <point x="930" y="912"/>
      <point x="762" y="846"/>
      <point x="723" y="672" type="curve"/>
      <point x="726" y="1445" type="line"/>
      <point x="413" y="1445" type="line"/>
      <point x="413" y="0" type="line"/>
      <point x="723" y="0" type="line"/>
      <point x="723" y="518" type="line" smooth="yes"/>
      <point x="723" y="843"/>
      <point x="945" y="865"/>
      <point x="1019" y="865" type="curve" smooth="yes"/>
      <point x="1198" y="865"/>
      <point x="1277" y="737"/>
      <point x="1277" y="434" type="curve" smooth="yes"/>
      <point x="1277" y="206"/>
      <point x="1232" y="-14"/>
      <point x="1044" y="-14" type="curve"/>
    </contour>
    <contour>
      <point x="68" y="1419" type="line"/>
      <point x="1074" y="1419" type="line"/>
      <point x="1074" y="1445" type="line"/>
      <point x="68" y="1445" type="line"/>
    </contour>
  </outline>
</glyph>
<glyph name="Be-cy" format="2">
  <advance width="1353"/>
  <unicode hex="0411"/>
  <outline>
    <contour>
      <point x="175" y="0" type="line"/>
      <point x="712" y="0" type="line" smooth="yes"/>
      <point x="1085" y="0"/>
      <point x="1263" y="107"/>
      <point x="1263" y="398" type="curve" smooth="yes"/>
      <point x="1263" y="689"/>
      <point x="1085" y="798"/>
      <point x="712" y="798" type="curve" smooth="yes"/>
      <point x="284" y="798" type="line"/>
      <point x="435" y="647" type="line"/>
      <point x="435" y="1445" type="line"/>
      <point x="175" y="1445" type="line"/>
    </contour>
    <contour>
      <point x="435" y="13" type="line"/>
      <point x="435" y="924" type="line"/>
      <point x="284" y="773" type="line"/>
      <point x="632" y="773" type="line" smooth="yes"/>
      <point x="842" y="773"/>
      <point x="983" y="701"/>
      <point x="983" y="398" type="curve" smooth="yes"/>
      <point x="983" y="71"/>
      <point x="819" y="24"/>
      <point x="612" y="24" type="curve" smooth="yes"/>
      <point x="284" y="24" type="line"/>
    </contour>
    <contour>
      <point x="1015" y="1419" type="line"/>
      <point x="1015" y="1445" type="line"/>
      <point x="175" y="1445" type="line"/>
      <point x="175" y="1419" type="line"/>
    </contour>
  </outline>
</glyph>
<glyph name="De-cy" format="2">
  <advance width="1735"/>
  <unicode hex="0414"/>
  <outline>
    <contour>
      <point x="101" y="0" type="line"/>
      <point x="1612" y="0" type="line"/>
      <point x="1612" y="26" type="line"/>
      <point x="1153" y="26" type="line"/>
      <point x="1442" y="17" type="line"/>
      <point x="1442" y="1430" type="line"/>
      <point x="518" y="1430" type="line"/>
      <point x="518" y="1404" type="line"/>
      <point x="1405" y="1404" type="line"/>
      <point x="1162" y="1409" type="line"/>
      <point x="1162" y="17" type="line"/>
      <point x="1405" y="26" type="line"/>
      <point x="101" y="26" type="line"/>
    </contour>
    <contour>
      <point x="397" y="25" type="line"/>
      <point x="679" y="575"/>
      <point x="640" y="944"/>
      <point x="649" y="1404" type="curve"/>
      <point x="518" y="1404" type="line"/>
      <point x="509" y="945"/>
      <point x="555" y="574"/>
      <point x="246" y="25" type="curve"/>
    </contour>
    <component base="_cyrillicdescender01.case" xOffset="1436"/>
    <component base="_cyrillicdescender01.case" xScale="-1" xOffset="299"/>
  </outline>
</glyph>
<glyph name="Ze-cy" format="2">
  <advance width="1320"/>
  <unicode hex="0417"/>
  <anchor x="660" y="0" name="bottom"/>
  <anchor x="660" y="1445" name="top"/>
  <outline>
    <contour>
      <point x="608" y="-26" type="curve" smooth="yes"/>
      <point x="920" y="-26"/>
      <point x="1252" y="28"/>
      <point x="1252" y="380" type="curve" smooth="yes"/>
      <point x="1252" y="594"/>
      <point x="1129" y="733"/>
      <point x="817" y="761" type="curve"/>
      <point x="776" y="735" type="line"/>
      <point x="1060" y="744"/>
      <point x="1161" y="922"/>
      <point x="1161" y="1114" type="curve" smooth="yes"/>
      <point x="1161" y="1385"/>
      <point x="950" y="1475"/>
      <point x="645" y="1475" type="curve" smooth="yes"/>
      <point x="363" y="1475"/>
      <point x="271" y="1378"/>
      <point x="183" y="1247" type="curve"/>
      <point x="324" y="1175" type="line"/>
      <point x="367" y="1301"/>
      <point x="423" y="1445"/>
      <point x="641" y="1445" type="curve" smooth="yes"/>
      <point x="797" y="1445"/>
      <point x="901" y="1372"/>
      <point x="901" y="1126" type="curve" smooth="yes"/>
      <point x="901" y="895"/>
      <point x="809" y="763"/>
      <point x="593" y="763" type="curve" smooth="yes"/>
      <point x="511" y="763" type="line"/>
      <point x="511" y="733" type="line"/>
      <point x="597" y="733" type="line" smooth="yes"/>
      <point x="843" y="733"/>
      <point x="938" y="631"/>
      <point x="938" y="386" type="curve" smooth="yes"/>
      <point x="938" y="119"/>
      <point x="819" y="2"/>
      <point x="614" y="2" type="curve" smooth="yes"/>
      <point x="402" y="2"/>
      <point x="307" y="151"/>
      <point x="280" y="329" type="curve"/>
      <point x="74" y="288" type="line"/>
      <point x="144" y="116"/>
      <point x="173" y="-26"/>
    </contour>
  </outline>
</glyph>
<glyph name="Pe-cy" format="2">
  <advance width="1650"/>
  <unicode hex="041F"/>
  <anchor x="1630" y="0" name="bottomright"/>
  <outline>
    <contour>
      <point x="170" y="0" type="line"/>
      <point x="450" y="0" type="line"/>
      <point x="450" y="1419" type="line"/>
      <point x="1200" y="1419" type="line"/>
      <point x="1200" y="0" type="line"/>
      <point x="1480" y="0" type="line"/>
      <point x="1480" y="1445" type="line"/>
      <point x="170" y="1445" type="line"/>
    </contour>
  </outline>
</glyph>
<glyph name="Ef-cy" format="2">
  <advance width="1632"/>
  <unicode hex="0424"/>
  <outline>
    <contour>
      <point x="726" y="176" type="curve"/>
      <point x="726" y="198" type="line"/>
      <point x="502" y="198"/>
      <point x="352" y="397"/>
      <point x="352" y="713" type="curve" smooth="yes"/>
      <point x="352" y="1036"/>
      <point x="502" y="1239"/>
      <point x="726" y="1239" type="curve"/>
      <point x="726" y="1261" type="line"/>
      <point x="324" y="1261"/>
      <point x="61" y="1050"/>
      <point x="61" y="714" type="curve" smooth="yes"/>
      <point x="61" y="384"/>
      <point x="324" y="176"/>
    </contour>
    <contour>
      <point x="676" y="0" type="line"/>
      <point x="955" y="0" type="line"/>
      <point x="955" y="1445" type="line"/>
      <point x="676" y="1445" type="line"/>
    </contour>
    <contour>
      <point x="906" y="176" type="line"/>
      <point x="1308" y="176"/>
      <point x="1571" y="384"/>
      <point x="1571" y="714" type="curve" smooth="yes"/>
      <point x="1571" y="1050"/>
      <point x="1308" y="1261"/>
      <point x="906" y="1261" type="curve"/>
      <point x="906" y="1239" type="line"/>
      <point x="1130" y="1239"/>
      <point x="1280" y="1036"/>
      <point x="1280" y="713" type="curve" smooth="yes"/>
      <point x="1280" y="397"/>
      <point x="1130" y="198"/>
      <point x="906" y="198" type="curve"/>
    </contour>
  </outline>
</glyph>
<glyph name="Sha-cy" format="2">
  <advance width="1860"/>
  <unicode hex="0428"/>
  <outline>
    <contour>
      <point x="175" y="0" type="line"/>
      <point x="1685" y="0" type="line"/>
      <point x="1685" y="1445" type="line"/>
      <point x="1405" y="1445" type="line"/>
      <point x="1405" y="26" type="line"/>
      <point x="455" y="26" type="line"/>
      <point x="455" y="1445" type="line"/>
      <point x="175" y="1445" type="line"/>
    </contour>
    <contour>
      <point x="790" y="0" type="line"/>
      <point x="1070" y="0" type="line"/>
      <point x="1070" y="1445" type="line"/>
      <point x="790" y="1445" type="line"/>
    </contour>
  </outline>
</glyph>
<glyph name="Softsign-cy" format="2">
  <advance width="1222"/>
  <unicode hex="042C"/>
  <outline>
    <contour>
      <point x="175" y="0" type="line"/>
      <point x="583" y="0" type="line" smooth="yes"/>
      <point x="781" y="0"/>
      <point x="924" y="28"/>
      <point x="1014" y="98" type="curve" smooth="yes"/>
      <point x="1090" y="157"/>
      <point x="1128" y="247"/>
      <point x="1131" y="379" type="curve" smooth="yes"/>
      <point x="1134" y="533"/>
      <point x="1092" y="640"/>
      <point x="1010" y="707" type="curve" smooth="yes"/>
      <point x="914" y="785"/>
      <point x="771" y="810"/>
      <point x="597" y="811" type="curve" smooth="yes"/>
      <point x="259" y="812" type="line"/>
      <point x="455" y="793" type="line"/>
      <point x="455" y="1445" type="line"/>
      <point x="175" y="1445" type="line"/>
    </contour>
    <contour>
      <point x="455" y="17" type="line"/>
      <point x="455" y="802" type="line"/>
      <point x="258" y="784" type="line"/>
      <point x="548" y="785" type="line" smooth="yes"/>
      <point x="744" y="786"/>
      <point x="868" y="636"/>
      <point x="863" y="400" type="curve" smooth="yes"/>
      <point x="858" y="163"/>
      <point x="725" y="27"/>
      <point x="536" y="26" type="curve" smooth="yes"/>
      <point x="214" y="24" type="line"/>
    </contour>
  </outline>
</glyph>
<glyph name="ve-cy" format="2">
  <advance width="1042"/>
  <unicode hex="0432"/>
  <outline>
    <contour>
      <point x="119" y="0" type="line"/>
      <point x="594" y="0" type="line" smooth="yes"/>
      <point x="861" y="0"/>
      <point x="984" y="58"/>
      <point x="984" y="256" type="curve" smooth="yes"/>
      <point x="984" y="474"/>
      <point x="851" y="487"/>
      <point x="724" y="542" type="curve"/>
      <point x="729" y="535" type="line"/>
      <point x="867" y="569"/>
      <point x="934" y="611"/>
      <point x="934" y="721" type="curve" smooth="yes"/>
      <point x="934" y="904"/>
      <point x="747" y="929"/>
      <point x="521" y="929" type="curve" smooth="yes"/>
      <point x="119" y="929" type="line"/>
    </contour>
    <contour>
      <point x="372" y="11" type="line"/>
      <point x="372" y="518" type="line"/>
      <point x="350" y="516" type="line"/>
      <point x="491" y="516" type="line" smooth="yes"/>
      <point x="643" y="516"/>
      <point x="748" y="427"/>
      <point x="748" y="250" type="curve" smooth="yes"/>
      <point x="748" y="20"/>
      <point x="592" y="20"/>
      <point x="487" y="20" type="curve" smooth="yes"/>
      <point x="146" y="20" type="line"/>
    </contour>
    <contour>
      <point x="372" y="535" type="line"/>
      <point x="372" y="919" type="line"/>
      <point x="149" y="909" type="line"/>
      <point x="394" y="909" type="line" smooth="yes"/>
      <point x="593" y="909"/>
      <point x="691" y="860"/>
      <point x="691" y="718" type="curve" smooth="yes"/>
      <point x="691" y="603"/>
      <point x="619" y="536"/>
      <point x="518" y="536" type="curve" smooth="yes"/>
      <point x="358" y="536" type="line"/>
    </contour>
  </outline>
</glyph>
<glyph name="de-cy" format="2">
  <advance width="1190"/>
  <unicode hex="0434"/>
  <outline>
    <contour>
      <point x="32" y="0" type="line"/>
      <point x="1094" y="0" type="line"/>
      <point x="1094" y="21" type="line"/>
      <point x="678" y="21" type="line"/>
      <point x="991" y="16" type="line"/>
      <point x="991" y="929" type="line"/>
      <point x="310" y="929" type="line"/>
      <point x="310" y="899" type="line"/>
      <point x="970" y="899" type="line"/>
      <point x="709" y="907" type="line"/>
      <point x="709" y="16" type="line"/>
      <point x="970" y="30" type="line"/>
      <point x="32" y="30" type="line"/>
    </contour>
    <contour>
      <point x="264" y="12" type="line"/>
      <point x="410" y="416"/>
      <point x="409" y="648"/>
      <point x="420" y="914" type="curve"/>
      <point x="310" y="912" type="line"/>
      <point x="299" y="636"/>
      <point x="312" y="411"/>
      <point x="136" y="10" type="curve"/>
    </contour>
    <component base="_cyrillicdescender02" xOffset="862"/>
    <component base="_cyrillicdescender02" xScale="-1" xOffset="328"/>
  </outline>
</glyph>
<glyph name="ze-cy" format="2">
  <advance width="935"/>
  <unicode hex="0437"/>
  <anchor x="468" y="0" name="bottom"/>
  <anchor x="468" y="929" name="top"/>
  <outline>
    <contour>
      <point x="497" y="-36" type="curve" smooth="yes"/>
      <point x="792" y="-19"/>
      <point x="883" y="67"/>
      <point x="883" y="227" type="curve" smooth="yes"/>
      <point x="883" y="387"/>
      <point x="792" y="473"/>
      <point x="497" y="490" type="curve"/>
      <point x="493" y="463" type="line"/>
      <point x="715" y="473"/>
      <point x="828" y="563"/>
      <point x="828" y="715" type="curve" smooth="yes"/>
      <point x="828" y="867"/>
      <point x="715" y="957"/>
      <point x="493" y="967" type="curve" smooth="yes"/>
      <point x="277" y="966"/>
      <point x="184" y="931"/>
      <point x="85" y="814" type="curve"/>
      <point x="209" y="754" type="line"/>
      <point x="250" y="815"/>
      <point x="246" y="935"/>
      <point x="432" y="935" type="curve" smooth="yes"/>
      <point x="556" y="935"/>
      <point x="610" y="875"/>
      <point x="610" y="709" type="curve" smooth="yes"/>
      <point x="610" y="580"/>
      <point x="530" y="487"/>
      <point x="392" y="487" type="curve" smooth="yes"/>
      <point x="333" y="487" type="line"/>
      <point x="333" y="474" type="line"/>
      <point x="400" y="475" type="line" smooth="yes"/>
      <point x="547" y="475"/>
      <point x="618" y="397"/>
      <point x="618" y="235" type="curve" smooth="yes"/>
      <point x="618" y="73"/>
      <point x="547" y="-5"/>
      <point x="400" y="-5" type="curve" smooth="yes"/>
      <point x="298" y="-5"/>
      <point x="215" y="84"/>
      <point x="192" y="217" type="curve"/>
      <point x="4" y="179" type="line"/>
      <point x="90" y="13"/>
      <point x="203" y="-36"/>
    </contour>
  </outline>
</glyph>
<glyph name="ka-cy" format="2">
  <advance width="1034"/>
  <unicode hex="043A"/>
  <anchor x="1014" y="0" name="bottomright"/>
  <anchor x="517" y="929" name="top"/>
  <outline>
    <contour>
      <point x="124" y="0" type="line"/>
      <point x="406" y="0" type="line"/>
      <point x="406" y="929" type="line"/>
      <point x="124" y="929" type="line"/>
    </contour>
    <contour>
      <point x="514" y="495" type="line"/>
      <point x="977" y="929" type="line"/>
      <point x="865" y="929" type="line"/>
      <point x="359" y="453" type="line"/>
    </contour>
    <contour>
      <point x="718" y="0" type="line"/>
      <point x="1028" y="0" type="line"/>
      <point x="538" y="522" type="line"/>
      <point x="312" y="433" type="line"/>
    </contour>
  </outline>
</glyph>
<glyph name="pe-cy" format="2">
  <advance width="1203"/>
  <unicode hex="043F"/>
  <anchor x="1183" y="0" name="bottomright"/>
  <outline>
    <contour>
      <point x="124" y="0" type="line"/>
      <point x="406" y="0" type="line"/>
      <point x="406" y="897" type="line"/>
      <point x="797" y="897" type="line"/>
      <point x="797" y="0" type="line"/>
      <point x="1079" y="0" type="line"/>
      <point x="1079" y="929" type="line"/>
      <point x="124" y="929" type="line"/>
    </contour>
  </outline>
</glyph>
<glyph name="ef-cy" format="2">
  <advance width="1576"/>
  <unicode hex="0444"/>
  <outline>
    <contour>
      <point x="985" y="-14" type="curve" smooth="yes"/>
      <point x="1349" y="-14"/>
      <point x="1525" y="144"/>
      <point x="1525" y="467" type="curve" smooth="yes"/>
      <point x="1525" y="790"/>
      <point x="1349" y="948"/>
      <point x="985" y="948" type="curve" smooth="yes"/>
      <point x="967" y="948"/>
      <point x="945" y="946"/>
      <point x="926" y="938" type="curve"/>
      <point x="925" y="899" type="line"/>
      <point x="955" y="914"/>
      <point x="962" y="916"/>
      <point x="985" y="916" type="curve" smooth="yes"/>
      <point x="1134" y="916"/>
      <point x="1231" y="742"/>
      <point x="1231" y="467" type="curve" smooth="yes"/>
      <point x="1231" y="192"/>
      <point x="1134" y="18"/>
      <point x="985" y="18" type="curve" smooth="yes"/>
      <point x="962" y="18"/>
      <point x="955" y="20"/>
      <point x="925" y="35" type="curve"/>
      <point x="926" y="-4" type="line"/>
      <point x="945" y="-10"/>
      <point x="967" y="-14"/>
    </contour>
    <contour>
      <point x="591" y="-14" type="curve" smooth="yes"/>
      <point x="609" y="-14"/>
      <point x="631" y="-10"/>
      <point x="650" y="-4" type="curve"/>
      <point x="651" y="35" type="line"/>
      <point x="621" y="20"/>
      <point x="614" y="18"/>
      <point x="591" y="18" type="curve" smooth="yes"/>
      <point x="442" y="18"/>
      <point x="345" y="192"/>
      <point x="345" y="467" type="curve" smooth="yes"/>
      <point x="345" y="742"/>
      <point x="442" y="916"/>
      <point x="591" y="916" type="curve" smooth="yes"/>
      <point x="614" y="916"/>
      <point x="621" y="914"/>
      <point x="651" y="899" type="curve"/>
      <point x="650" y="937" type="line"/>
      <point x="631" y="945"/>
      <point x="609" y="948"/>
      <point x="591" y="948" type="curve" smooth="yes"/>
      <point x="227" y="948"/>
      <point x="51" y="790"/>
      <point x="51" y="467" type="curve" smooth="yes"/>
      <point x="51" y="144"/>
      <point x="227" y="-14"/>
    </contour>
    <contour>
      <point x="647" y="-526" type="line"/>
      <point x="929" y="-526" type="line"/>
      <point x="929" y="1445" type="line"/>
      <point x="647" y="1445" type="line"/>
    </contour>
  </outline>
</glyph>
<glyph name="tse-cy" format="2">
  <advance width="1291"/>
  <unicode hex="0446"/>
  <anchor x="1183" y="929" name="bottomright"/>
  <outline>
    <contour>
      <point x="1283" y="0" type="line"/>
      <point x="1283" y="32" type="line"/>
      <point x="1009" y="32" type="line"/>
      <point x="1009" y="0" type="line"/>
    </contour>
    <component base="pe-cy" yScale="-1" yOffset="929"/>
    <component base="_cyrillicdescender01" xScale="-1" xOffset="1329"/>
  </outline>
</glyph>
<glyph name="che-cy" format="2">
  <advance width="1073"/>
  <unicode hex="0447"/>
  <anchor x="953" y="0" name="bottomright"/>
  <anchor x="537" y="929" name="top"/>
  <outline>
    <contour>
      <point x="664" y="0" type="line"/>
      <point x="949" y="0" type="line"/>
      <point x="949" y="929" type="line"/>
      <point x="667" y="929" type="line"/>
      <point x="667" y="530" type="line" smooth="yes"/>
      <point x="667" y="420"/>
      <point x="576" y="339"/>
      <point x="482" y="339" type="curve" smooth="yes"/>
      <point x="373" y="339"/>
      <point x="334" y="447"/>
      <point x="334" y="640" type="curve" smooth="yes"/>
      <point x="334" y="929" type="line"/>
      <point x="52" y="929" type="line"/>
      <point x="52" y="690" type="line" smooth="yes"/>
      <point x="52" y="377"/>
      <point x="226" y="299"/>
      <point x="416" y="299" type="curve" smooth="yes"/>
      <point x="606" y="299"/>
      <point x="675" y="377"/>
      <point x="675" y="485" type="curve"/>
      <point x="668" y="469" type="line"/>
    </contour>
  </outline>
</glyph>
<glyph name="sha-cy" format="2">
  <advance width="1429"/>
  <unicode hex="0448"/>
  <anchor x="1321" y="0" name="bottomright"/>
  <outline>
    <contour>
      <point x="123" y="0" type="line"/>
      <point x="1306" y="0" type="line"/>
      <point x="1306" y="917" type="line"/>
      <point x="1040" y="917" type="line"/>
      <point x="1040" y="30" type="line"/>
      <point x="389" y="30" type="line"/>
      <point x="389" y="917" type="line"/>
      <point x="123" y="917" type="line"/>
    </contour>
    <contour>
      <point x="582" y="0" type="line"/>
      <point x="848" y="0" type="line"/>
      <point x="848" y="917" type="line"/>
      <point x="582" y="917" type="line"/>
    </contour>
  </outline>
</glyph>
<glyph name="softsign-cy" format="2">
  <advance width="935"/>
  <unicode hex="044C"/>
  <outline>
    <contour>
      <point x="124" y="0" type="line"/>
      <point x="444" y="0" type="line" smooth="yes"/>
      <point x="783" y="0"/>
      <point x="909" y="63"/>
      <point x="909" y="275" type="curve" smooth="yes"/>
      <point x="909" y="522"/>
      <point x="721" y="551"/>
      <point x="444" y="550" type="curve" smooth="yes"/>
      <point x="206" y="549" type="line"/>
      <point x="406" y="526" type="line"/>
      <point x="406" y="929" type="line"/>
      <point x="124" y="929" type="line"/>
    </contour>
    <contour>
      <point x="406" y="15" type="line"/>
      <point x="406" y="538" type="line"/>
      <point x="202" y="520" type="line"/>
      <point x="435" y="520" type="line" smooth="yes"/>
      <point x="575" y="520"/>
      <point x="637" y="429"/>
      <point x="637" y="275" type="curve" smooth="yes"/>
      <point x="637" y="121"/>
      <point x="585" y="30"/>
      <point x="445" y="30" type="curve" smooth="yes"/>
      <point x="162" y="30" type="line"/>
    </contour>
  </outline>
</glyph>
<glyph name="Yat-cy" format="2">
  <advance width="1121"/>
  <unicode hex="0462"/>
  <outline>
    <contour>
      <point x="206" y="0" type="line"/>
      <point x="553" y="0" type="line" smooth="yes"/>
      <point x="718" y="0"/>
      <point x="842" y="21"/>
      <point x="922" y="89" type="curve" smooth="yes"/>
      <point x="980" y="139"/>
      <point x="1028" y="236"/>
      <point x="1030" y="365" type="curve" smooth="yes"/>
      <point x="1033" y="496"/>
      <point x="979" y="589"/>
      <point x="918" y="643" type="curve" smooth="yes"/>
      <point x="830" y="721"/>
      <point x="709" y="736"/>
      <point x="564" y="737" type="curve" smooth="yes"/>
      <point x="283" y="738" type="line"/>
      <point x="486" y="723" type="line"/>
      <point x="486" y="1445" type="line"/>
      <point x="206" y="1445" type="line"/>
    </contour>
    <contour>
      <point x="486" y="14" type="line"/>
      <point x="486" y="732" type="line"/>
      <point x="282" y="713" type="line"/>
      <point x="523" y="714" type="line" smooth="yes"/>
      <point x="687" y="715"/>
      <point x="790" y="577"/>
      <point x="786" y="364" type="curve" smooth="yes"/>
      <point x="782" y="147"/>
      <point x="671" y="22"/>
      <point x="513" y="21" type="curve" smooth="yes"/>
      <point x="245" y="19" type="line"/>
    </contour>
    <contour>
      <point x="31" y="1292" type="line"/>
      <point x="655" y="1292" type="line"/>
      <point x="655" y="1318" type="line"/>
      <point x="31" y="1318" type="line"/>
    </contour>
  </outline>
</glyph>
<glyph name="yat-cy" format="2">
  <advance width="949"/>
  <unicode hex="0463"/>
  <anchor x="275" y="1205" name="center"/>
  <outline>
    <contour>
      <point x="138" y="0" type="line"/>
      <point x="458" y="0" type="line" smooth="yes"/>
      <point x="797" y="0"/>
      <point x="923" y="63"/>
      <point x="923" y="275" type="curve" smooth="yes"/>
      <point x="923" y="522"/>
      <point x="735" y="551"/>
      <point x="458" y="550" type="curve" smooth="yes"/>
      <point x="220" y="549" type="line"/>
      <point x="420" y="526" type="line"/>
      <point x="420" y="1529" type="line"/>
      <point x="138" y="1529" type="line"/>
    </contour>
    <contour>
      <point x="420" y="15" type="line"/>
      <point x="420" y="538" type="line"/>
      <point x="216" y="520" type="line"/>
      <point x="449" y="520" type="line" smooth="yes"/>
      <point x="589" y="520"/>
      <point x="651" y="429"/>
      <point x="651" y="275" type="curve" smooth="yes"/>
      <point x="651" y="121"/>
      <point x="599" y="30"/>
      <point x="459" y="30" type="curve" smooth="yes"/>
      <point x="176" y="30" type="line"/>
    </contour>
    <component base="_cyrillic_bar" xOffset="21" yOffset="722"/>
  </outline>
</glyph>
<glyph name="Fita-cy" format="2">
  <advance width="1652"/>
  <unicode hex="0472"/>
  <anchor x="826" y="0" name="bottom"/>
  <anchor x="826" y="715" name="center"/>
  <anchor x="1014" y="0" name="ogonek"/>
  <anchor x="826" y="1430" name="top"/>
  <anchor x="25" y="1430" name="topleft"/>
  <anchor x="1377" y="1430" name="topright"/>
  <outline>
    <contour>
      <point x="1010" y="643" type="curve" smooth="yes"/>
      <point x="1184" y="643"/>
      <point x="1311" y="704"/>
      <point x="1335" y="801" type="curve"/>
      <point x="1335" y="864" type="line"/>
      <point x="1313" y="765"/>
      <point x="1242" y="705"/>
      <point x="1071" y="705" type="curve" smooth="yes"/>
      <point x="869" y="705"/>
      <point x="843" y="793"/>
      <point x="643" y="793" type="curve" smooth="yes"/>
      <point x="470" y="793"/>
      <point x="341" y="730"/>
      <point x="317" y="633" type="curve"/>
      <point x="317" y="568" type="line"/>
      <point x="343" y="684"/>
      <point x="420" y="727"/>
      <point x="591" y="727" type="curve" smooth="yes"/>
      <point x="793" y="727"/>
      <point x="835" y="643"/>
    </contour>
    <component base="O"/>
  </outline>
</glyph>
<glyph name="perthousand" format="2">
  <advance width="2826"/>
  <unicode hex="2030"/>
  <note>
perthousand
</note>
  <outline>
    <contour>
      <point x="377" y="-15" type="line"/>
      <point x="539" y="-15" type="line"/>
      <point x="1501" y="1445" type="line"/>
      <point x="1339" y="1445" type="line"/>
    </contour>
    <contour>
      <point x="1404" y="-35" type="curve" smooth="yes"/>
      <point x="1660" y="-35"/>
      <point x="1806" y="130"/>
      <point x="1806" y="354" type="curve" smooth="yes"/>
      <point x="1806" y="566"/>
      <point x="1650" y="743"/>
      <point x="1404" y="743" type="curve" smooth="yes"/>
      <point x="1160" y="743"/>
      <point x="999" y="566"/>
      <point x="999" y="354" type="curve" smooth="yes"/>
      <point x="999" y="140"/>
      <point x="1137" y="-35"/>
    </contour>
    <contour>
      <point x="1404" y="-11" type="curve" smooth="yes"/>
      <point x="1295" y="-11"/>
      <point x="1222" y="135"/>
      <point x="1222" y="354" type="curve" smooth="yes"/>
      <point x="1222" y="573"/>
      <point x="1295" y="719"/>
      <point x="1404" y="719" type="curve" smooth="yes"/>
      <point x="1513" y="719"/>
      <point x="1586" y="573"/>
      <point x="1586" y="354" type="curve" smooth="yes"/>
      <point x="1586" y="135"/>
      <point x="1513" y="-11"/>
    </contour>
    <contour>
      <point x="494" y="685" type="curve" smooth="yes"/>
      <point x="750" y="685"/>
      <point x="896" y="850"/>
      <point x="896" y="1074" type="curve" smooth="yes"/>
      <point x="896" y="1286"/>
      <point x="740" y="1463"/>
      <point x="494" y="1463" type="curve" smooth="yes"/>
      <point x="250" y="1463"/>
      <point x="89" y="1286"/>
      <point x="89" y="1074" type="curve" smooth="yes"/>
      <point x="89" y="860"/>
      <point x="227" y="685"/>
    </contour>
    <contour>
      <point x="494" y="709" type="curve" smooth="yes"/>
      <point x="385" y="709"/>
      <point x="312" y="855"/>
      <point x="312" y="1074" type="curve" smooth="yes"/>
      <point x="312" y="1293"/>
      <point x="385" y="1439"/>
      <point x="494" y="1439" type="curve" smooth="yes"/>
      <point x="603" y="1439"/>
      <point x="676" y="1293"/>
      <point x="676" y="1074" type="curve" smooth="yes"/>
      <point x="676" y="855"/>
      <point x="603" y="709"/>
    </contour>
    <contour>
      <point x="2334" y="-35" type="curve" smooth="yes"/>
      <point x="2590" y="-35"/>
      <point x="2736" y="130"/>
      <point x="2736" y="354" type="curve" smooth="yes"/>
      <point x="2736" y="566"/>
      <point x="2580" y="743"/>
      <point x="2334" y="743" type="curve" smooth="yes"/>
      <point x="2090" y="743"/>
      <point x="1929" y="566"/>
      <point x="1929" y="354" type="curve" smooth="yes"/>
      <point x="1929" y="140"/>
      <point x="2067" y="-35"/>
    </contour>
    <contour>
      <point x="2334" y="-11" type="curve" smooth="yes"/>
      <point x="2225" y="-11"/>
      <point x="2152" y="135"/>
      <point x="2152" y="354" type="curve" smooth="yes"/>
      <point x="2152" y="573"/>
      <point x="2225" y="719"/>
      <point x="2334" y="719" type="curve" smooth="yes"/>
      <point x="2443" y="719"/>
      <point x="2516" y="573"/>
      <point x="2516" y="354" type="curve" smooth="yes"/>
      <point x="2516" y="135"/>
      <point x="2443" y="-11"/>
    </contour>
  </outline>
</glyph>
<glyph name="guilsinglright" format="2">
  <advance width="535"/>
  <unicode hex="203A"/>
  <note>
guilsinglright
</note>
  <outline>
    <contour>
      <point x="172" y="-11" type="line"/>
      <point x="501" y="442" type="line"/>
      <point x="189" y="889" type="line"/>
      <point x="64" y="812" type="line"/>
      <point x="302" y="442" type="line"/>
      <point x="62" y="80" type="line"/>
    </contour>
  </outline>
</glyph>
<glyph name="lira" format="2">
  <advance width="1368"/>
  <unicode hex="20A4"/>
  <outline>
    <contour>
      <point x="160" y="-20" type="line"/>
      <point x="1246" y="-20" type="line"/>
      <point x="1246" y="77" type="line"/>
      <point x="160" y="77" type="line"/>
    </contour>
    <contour>
      <point x="160" y="757" type="line"/>
      <point x="1116" y="757" type="line"/>
      <point x="1116" y="823" type="line"/>
      <point x="160" y="823" type="line"/>
    </contour>
    <contour>
      <point x="160" y="77" type="curve"/>
      <point x="324" y="64" type="line"/>
      <point x="534" y="228"/>
      <point x="622" y="318"/>
      <point x="660" y="625" type="curve" smooth="yes"/>
      <point x="698" y="931"/>
      <point x="521" y="863"/>
      <point x="521" y="1170" type="curve" smooth="yes"/>
      <point x="521" y="1337"/>
      <point x="579" y="1418"/>
      <point x="696" y="1418" type="curve" smooth="yes"/>
      <point x="837" y="1418"/>
      <point x="959" y="1305"/>
      <point x="943" y="1108" type="curve"/>
      <point x="1252" y="1108" type="line"/>
      <point x="1259" y="1327"/>
      <point x="999" y="1484"/>
      <point x="703" y="1484" type="curve" smooth="yes"/>
      <point x="411" y="1484"/>
      <point x="197" y="1345"/>
      <point x="197" y="1152" type="curve" smooth="yes"/>
      <point x="197" y="840"/>
      <point x="409" y="872"/>
      <point x="372" y="615" type="curve" smooth="yes"/>
      <point x="348" y="451"/>
      <point x="264" y="169"/>
    </contour>
    <contour>
      <point x="160" y="547" type="line"/>
      <point x="1116" y="547" type="line"/>
      <point x="1116" y="613" type="line"/>
      <point x="160" y="613" type="line"/>
    </contour>
  </outline>
</glyph>
<glyph name="peseta" format="2">
  <advance width="1457"/>
  <unicode hex="20A7"/>
  <anchor x="827" y="0" name="_bottom"/>
  <anchor x="827" y="415" name="bar"/>
  <anchor x="827" y="-266" name="bottom"/>
  <anchor x="827" y="1445" name="top"/>
  <outline>
    <contour>
      <point x="77" y="634" type="line"/>
      <point x="577" y="634" type="line"/>
      <point x="577" y="660" type="line"/>
      <point x="77" y="660" type="line"/>
    </contour>
    <component base="P" xOffset="224"/>
  </outline>
</glyph>
<glyph name="trademark" format="2">
  <advance width="1393"/>
  <unicode hex="2122"/>
  <note>
trademark
</note>
  <outline>
    <contour>
      <point x="649" y="900" type="line"/>
      <point x="729" y="900" type="line"/>
      <point x="729" y="1348" type="line"/>
      <point x="905" y="900" type="line"/>
      <point x="957" y="900" type="line"/>
      <point x="1125" y="1348" type="line"/>
      <point x="1125" y="900" type="line"/>
      <point x="1205" y="900" type="line"/>
      <point x="1205" y="1422" type="line"/>
      <point x="1077" y="1422" type="line"/>
      <point x="931" y="1026" type="line"/>
      <point x="775" y="1422" type="line"/>
      <point x="649" y="1422" type="line"/>
    </contour>
    <contour>
      <point x="267" y="900" type="line"/>
      <point x="359" y="900" type="line"/>
      <point x="359" y="1356" type="line"/>
      <point x="527" y="1356" type="line"/>
      <point x="527" y="1422" type="line"/>
      <point x="97" y="1422" type="line"/>
      <point x="97" y="1356" type="line"/>
      <point x="267" y="1356" type="line"/>
    </contour>
  </outline>
</glyph>
<glyph name="summation" format="2">
  <advance width="1579"/>
  <unicode hex="2211"/>
  <note>
summation
</note>
  <outline>
    <contour>
      <point x="91" y="-399" type="line"/>
      <point x="1479" y="-399" type="line"/>
      <point x="1479" y="-209" type="line"/>
      <point x="475" y="-209" type="line"/>
      <point x="1163" y="550" type="line"/>
      <point x="503" y="1261" type="line"/>
      <point x="1463" y="1261" type="line"/>
      <point x="1463" y="1453" type="line"/>
      <point x="123" y="1453" type="line"/>
      <point x="123" y="1294" type="line"/>
      <point x="819" y="546" type="line"/>
      <point x="91" y="-257" type="line"/>
    </contour>
  </outline>
</glyph>
<glyph name="infinity" format="2">
  <advance width="1597"/>
  <unicode hex="221E"/>
  <note>
infinity
</note>
  <outline>
    <contour>
      <point x="497" y="209" type="curve" smooth="yes"/>
      <point x="626" y="209"/>
      <point x="727" y="264"/>
      <point x="811" y="381" type="curve"/>
      <point x="895" y="265"/>
      <point x="992" y="213"/>
      <point x="1121" y="213" type="curve" smooth="yes"/>
      <point x="1335" y="213"/>
      <point x="1474" y="365"/>
      <point x="1474" y="602" type="curve" smooth="yes"/>
      <point x="1474" y="825"/>
      <point x="1315" y="989"/>
      <point x="1099" y="989" type="curve" smooth="yes"/>
      <point x="971" y="989"/>
      <point x="867" y="931"/>
      <point x="785" y="816" type="curve"/>
      <point x="704" y="931"/>
      <point x="605" y="985"/>
      <point x="477" y="985" type="curve" smooth="yes"/>
      <point x="262" y="985"/>
      <point x="122" y="832"/>
      <point x="122" y="596" type="curve" smooth="yes"/>
      <point x="122" y="374"/>
      <point x="281" y="209"/>
    </contour>
    <contour>
      <point x="459" y="359" type="curve" smooth="yes"/>
      <point x="381" y="359"/>
      <point x="316" y="461"/>
      <point x="316" y="588" type="curve" smooth="yes"/>
      <point x="316" y="726"/>
      <point x="385" y="821"/>
      <point x="483" y="821" type="curve" smooth="yes"/>
      <point x="564" y="821"/>
      <point x="621" y="774"/>
      <point x="687" y="651" type="curve"/>
      <point x="590" y="434"/>
      <point x="528" y="359"/>
    </contour>
    <contour>
      <point x="1117" y="377" type="curve" smooth="yes"/>
      <point x="1033" y="377"/>
      <point x="977" y="422"/>
      <point x="911" y="545" type="curve"/>
      <point x="1005" y="757"/>
      <point x="1072" y="839"/>
      <point x="1139" y="839" type="curve" smooth="yes"/>
      <point x="1217" y="839"/>
      <point x="1282" y="737"/>
      <point x="1282" y="608" type="curve" smooth="yes"/>
      <point x="1282" y="473"/>
      <point x="1213" y="377"/>
    </contour>
  </outline>
</glyph>
<glyph name="integral" format="2">
  <advance width="1342"/>
  <unicode hex="222B"/>
  <note>
integral
</note>
  <outline>
    <contour>
      <point x="345" y="-560" type="curve" smooth="yes"/>
      <point x="587" y="-560"/>
      <point x="676" y="-406"/>
      <point x="724" y="-133" type="curve" smooth="yes"/>
      <point x="932" y="1052" type="line" smooth="yes"/>
      <point x="955" y="1185"/>
      <point x="934" y="1435"/>
      <point x="1031" y="1488" type="curve"/>
      <point x="1069" y="1480"/>
      <point x="1079" y="1465"/>
      <point x="1079" y="1453" type="curve" smooth="yes"/>
      <point x="1079" y="1430"/>
      <point x="1046" y="1319"/>
      <point x="1027" y="1274" type="curve"/>
      <point x="1244" y="1274" type="line"/>
      <point x="1260" y="1322"/>
      <point x="1276" y="1368"/>
      <point x="1276" y="1406" type="curve" smooth="yes"/>
      <point x="1276" y="1509"/>
      <point x="1167" y="1579"/>
      <point x="997" y="1579" type="curve" smooth="yes"/>
      <point x="752" y="1579"/>
      <point x="665" y="1421"/>
      <point x="618" y="1152" type="curve" smooth="yes"/>
      <point x="410" y="-33" type="line" smooth="yes"/>
      <point x="387" y="-166"/>
      <point x="408" y="-416"/>
      <point x="311" y="-469" type="curve"/>
      <point x="273" y="-461"/>
      <point x="263" y="-446"/>
      <point x="263" y="-434" type="curve" smooth="yes"/>
      <point x="263" y="-411"/>
      <point x="296" y="-300"/>
      <point x="315" y="-255" type="curve"/>
      <point x="98" y="-255" type="line"/>
      <point x="82" y="-304"/>
      <point x="65" y="-353"/>
      <point x="65" y="-391" type="curve" smooth="yes"/>
      <point x="65" y="-489"/>
      <point x="176" y="-560"/>
    </contour>
  </outline>
</glyph>
<glyph name="approxequal" format="2">
  <advance width="1044"/>
  <unicode hex="2248"/>
  <note>
approxequal
</note>
  <outline>
    <contour>
      <point x="911" y="699" type="curve" smooth="yes"/>
      <point x="1047" y="699"/>
      <point x="1205" y="784"/>
      <point x="1278" y="833" type="curve"/>
      <point x="1193" y="968" type="line"/>
      <point x="1033" y="876"/>
      <point x="952" y="865"/>
      <point x="911" y="865" type="curve" smooth="yes"/>
      <point x="842" y="865"/>
      <point x="789" y="902"/>
      <point x="731" y="933" type="curve" smooth="yes"/>
      <point x="624" y="990"/>
      <point x="535" y="1009"/>
      <point x="485" y="1009" type="curve" smooth="yes"/>
      <point x="381" y="1009"/>
      <point x="216" y="933"/>
      <point x="117" y="854" type="curve"/>
      <point x="203" y="719" type="line"/>
      <point x="363" y="820"/>
      <point x="438" y="843"/>
      <point x="484" y="843" type="curve" smooth="yes"/>
      <point x="548" y="843"/>
      <point x="648" y="789"/>
      <point x="683" y="770" type="curve" smooth="yes"/>
      <point x="820" y="696"/>
      <point x="896" y="699"/>
    </contour>
    <contour>
      <point x="911" y="299" type="curve" smooth="yes"/>
      <point x="1047" y="299"/>
      <point x="1205" y="384"/>
      <point x="1278" y="433" type="curve"/>
      <point x="1193" y="568" type="line"/>
      <point x="1033" y="476"/>
      <point x="952" y="465"/>
      <point x="911" y="465" type="curve" smooth="yes"/>
      <point x="842" y="465"/>
      <point x="789" y="502"/>
      <point x="731" y="533" type="curve" smooth="yes"/>
      <point x="624" y="590"/>
      <point x="535" y="609"/>
      <point x="485" y="609" type="curve" smooth="yes"/>
      <point x="381" y="609"/>
      <point x="216" y="533"/>
      <point x="117" y="454" type="curve"/>
      <point x="203" y="319" type="line"/>
      <point x="363" y="420"/>
      <point x="438" y="443"/>
      <point x="484" y="443" type="curve" smooth="yes"/>
      <point x="548" y="443"/>
      <point x="648" y="389"/>
      <point x="683" y="370" type="curve" smooth="yes"/>
      <point x="820" y="296"/>
      <point x="896" y="299"/>
    </contour>
  </outline>
</glyph>
<glyph name="fl" format="2">
  <advance width="1083"/>
  <unicode hex="F002"/>
  <note>
fl
</note>
  <anchor x="518.0" y="0" name="caret_1"/>
  <outline>
    <contour>
      <point x="177" y="0" type="line"/>
      <point x="459" y="0" type="line"/>
      <point x="459" y="942" type="line" smooth="yes"/>
      <point x="459" y="1185"/>
      <point x="362" y="1525"/>
      <point x="479" y="1550" type="curve" smooth="yes"/>
      <point x="545" y="1564"/>
      <point x="622" y="1460"/>
      <point x="622" y="1369" type="curve"/>
      <point x="766" y="1314" type="line"/>
      <point x="771" y="1340"/>
      <point x="772" y="1374"/>
      <point x="772" y="1386" type="curve" smooth="yes"/>
      <point x="772" y="1521"/>
      <point x="648" y="1579"/>
      <point x="481" y="1579" type="curve" smooth="yes"/>
      <point x="251" y="1579"/>
      <point x="177" y="1468"/>
      <point x="177" y="1042" type="curve"/>
    </contour>
    <contour>
      <point x="3" y="899" type="line"/>
      <point x="695" y="899" type="line"/>
      <point x="695" y="929" type="line"/>
      <point x="3" y="929" type="line"/>
    </contour>
    <contour>
      <point x="622" y="0" type="line"/>
      <point x="945" y="0" type="line"/>
      <point x="945" y="1529" type="line"/>
      <point x="622" y="1529" type="line"/>
    </contour>
  </outline>
</glyph>
<glyph name="_cyrillic_bar.case" format="2">
  <advance width="950"/>
  <anchor x="525" y="484" name="_center"/>
  <outline>
    <contour>
      <point x="105" y="471" type="line"/>
      <point x="945" y="471" type="line"/>
      <point x="945" y="497" type="line"/>
      <point x="105" y="497" type="line"/>
    </contour>
  </outline>
</glyph>
<glyph name="_cyrillicdescender01.case" format="2">
  <advance width="53"/>
  <anchor x="223" y="0" name="_bottomright"/>
  <outline>
    <contour>
      <point x="223" y="0" type="line"/>
      <point x="223" y="26" type="line"/>
      <point x="-100" y="26" type="line"/>
      <point x="-100" y="0" type="line"/>
    </contour>
    <component base="_cyrillicdescender02.case" xOffset="27"/>
  </outline>
</glyph>
<glyph name="_cyrillicdescender02" format="2">
  <advance width="1231"/>
  <anchor x="106" y="0" name="_bottomright"/>
  <outline>
    <contour>
      <point x="46" y="0" type="line"/>
      <point x="320" y="0" type="line"/>
      <point x="320" y="30" type="line"/>
      <point x="46" y="30" type="line"/>
    </contour>
    <component base="_cyrillicdescender01" xOffset="88"/>
  </outline>
</glyph>
<glyph name="brevecomb-cy" format="2">
  <anchor x="400" y="929" name="_top"/>
  <outline>
    <contour>
      <point x="400" y="1140" type="curve" smooth="yes"/>
      <point x="588" y="1140"/>
      <point x="692" y="1225"/>
      <point x="731" y="1392" type="curve"/>
      <point x="619" y="1392" type="line"/>
      <point x="575" y="1241"/>
      <point x="535" y="1174"/>
      <point x="400" y="1174" type="curve" smooth="yes"/>
      <point x="265" y="1174"/>
      <point x="225" y="1241"/>
      <point x="181" y="1392" type="curve"/>
      <point x="69" y="1392" type="line"/>
      <point x="108" y="1225"/>
      <point x="212" y="1140"/>
    </contour>
  </outline>
</glyph>
<glyph name="four.dnom" format="2">
  <advance width="857"/>
  <note>
four
</note>
  <outline>
    <contour>
      <point x="460" y="0" type="line"/>
      <point x="705" y="0" type="line"/>
      <point x="705" y="383" type="line"/>
      <point x="571" y="233" type="line"/>
      <point x="806" y="233" type="line"/>
      <point x="806" y="272" type="line"/>
      <point x="571" y="272" type="line"/>
      <point x="705" y="211" type="line"/>
      <point x="705" y="433" type="line"/>
      <point x="460" y="433" type="line"/>
      <point x="460" y="211" type="line"/>
      <point x="610" y="272" type="line"/>
      <point x="119" y="272" type="line"/>
      <point x="97" y="243" type="line"/>
      <point x="296" y="477"/>
      <point x="536" y="743"/>
      <point x="617" y="978" type="curve"/>
      <point x="458" y="972" type="line"/>
      <point x="360" y="725"/>
      <point x="216" y="498"/>
      <point x="51" y="233" type="curve"/>
      <point x="610" y="233" type="line"/>
      <point x="460" y="383" type="line"/>
    </contour>
  </outline>
</glyph>
<glyph name="one.dnom" format="2">
  <advance width="589"/>
  <note>
one
</note>
  <outline>
    <contour>
      <point x="224" y="0" type="line"/>
      <point x="504" y="0" type="line"/>
      <point x="504" y="931" type="line"/>
      <point x="403" y="931" type="line"/>
      <point x="50" y="551" type="line"/>
      <point x="127" y="496" type="line"/>
      <point x="296" y="661" type="line"/>
      <point x="224" y="707" type="line"/>
    </contour>
  </outline>
</glyph>
<glyph name="one.tf" format="2">
  <advance width="1250"/>
  <outline>
    <contour>
      <point x="484" y="0" type="line"/>
      <point x="764" y="0" type="line"/>
      <point x="764" y="1431" type="line"/>
      <point x="671" y="1431" type="line"/>
      <point x="242" y="914" type="line"/>
      <point x="314" y="863" type="line"/>
      <point x="561" y="1160" type="line"/>
      <point x="484" y="1185" type="line"/>
    </contour>
    <contour>
      <point x="236" y="0" type="line"/>
      <point x="1014" y="0" type="line"/>
      <point x="1014" y="126" type="line"/>
      <point x="236" y="126" type="line"/>
    </contour>
  </outline>
</glyph>
<glyph name="slash.fig" format="2">
  <advance width="1234"/>
  <anchor x="627" y="716" name="_center"/>
  <outline>
    <contour>
      <point x="58" y="-134" type="line"/>
      <point x="169" y="-134" type="line"/>
      <point x="1196" y="1566" type="line"/>
      <point x="1085" y="1566" type="line"/>
    </contour>
  </outline>
</glyph>
<glyph name="three.osf" format="2">
  <advance width="1158"/>
  <outline>
    <contour>
      <point x="515" y="-355" type="curve" smooth="yes"/>
      <point x="800" y="-355"/>
      <point x="1073" y="-211"/>
      <point x="1073" y="87" type="curve" smooth="yes"/>
      <point x="1073" y="281"/>
      <point x="957" y="469"/>
      <point x="749" y="440" type="curve"/>
      <point x="664" y="401" type="line"/>
      <point x="853" y="440"/>
      <point x="980" y="558"/>
      <point x="980" y="705" type="curve" smooth="yes"/>
      <point x="980" y="880"/>
      <point x="801" y="1007"/>
      <point x="555" y="1007" type="curve" smooth="yes"/>
      <point x="308" y="1007"/>
      <point x="66" y="877"/>
      <point x="66" y="694" type="curve"/>
      <point x="214" y="660" type="line"/>
      <point x="214" y="806"/>
      <point x="300" y="977"/>
      <point x="544" y="977" type="curve" smooth="yes"/>
      <point x="688" y="977"/>
      <point x="756" y="858"/>
      <point x="756" y="693" type="curve" smooth="yes"/>
      <point x="756" y="467"/>
      <point x="629" y="450"/>
      <point x="490" y="412" type="curve" smooth="yes"/>
      <point x="263" y="350" type="line"/>
      <point x="273" y="318" type="line"/>
      <point x="479" y="372"/>
      <point x="514" y="383"/>
      <point x="560" y="383" type="curve" smooth="yes"/>
      <point x="747" y="383"/>
      <point x="806" y="199"/>
      <point x="806" y="46" type="curve" smooth="yes"/>
      <point x="806" y="-148"/>
      <point x="712" y="-321"/>
      <point x="485" y="-321" type="curve" smooth="yes"/>
      <point x="349" y="-321"/>
      <point x="164" y="-260"/>
      <point x="36" y="-150" type="curve"/>
      <point x="10" y="-160" type="line"/>
      <point x="104" y="-261"/>
      <point x="285" y="-355"/>
    </contour>
  </outline>
</glyph>
